<svg width="26" height="16" viewBox="0 0 26 16" fill="none" xmlns="http://www.w3.org/2000/svg">
<path d="M7.70394 0C3.45072 0 0 3.45072 0 7.70394C0 11.9572 3.45072 15.4079 7.70394 15.4079H17.9759C22.2291 15.4079 25.6798 11.9572 25.6798 7.70394C25.6798 3.45072 22.2291 0 17.9759 0H7.70394ZM19.9018 7.38294C19.0151 7.38294 18.2969 6.66471 18.2969 5.77796C18.2969 4.8912 19.0151 4.17297 19.9018 4.17297C20.7886 4.17297 21.5068 4.8912 21.5068 5.77796C21.5068 6.66471 20.7886 7.38294 19.9018 7.38294ZM18.9389 9.62993C18.9389 10.5167 18.2206 11.2349 17.3339 11.2349C16.4471 11.2349 15.7289 10.5167 15.7289 9.62993C15.7289 8.74317 16.4471 8.02494 17.3339 8.02494C18.2206 8.02494 18.9389 8.74317 18.9389 9.62993ZM6.74095 5.45696C6.74095 4.9233 7.17028 4.49397 7.70394 4.49397C8.2376 4.49397 8.66693 4.9233 8.66693 5.45696V6.74095H9.95092C10.4846 6.74095 10.9139 7.17028 10.9139 7.70394C10.9139 8.2376 10.4846 8.66693 9.95092 8.66693H8.66693V9.95092C8.66693 10.4846 8.2376 10.9139 7.70394 10.9139C7.17028 10.9139 6.74095 10.4846 6.74095 9.95092V8.66693H5.45696C4.9233 8.66693 4.49397 8.2376 4.49397 7.70394C4.49397 7.17028 4.9233 6.74095 5.45696 6.74095H6.74095V5.45696Z" fill="white"/>
</svg>
