<svg width="27" height="24" viewBox="0 0 27 24" fill="none" xmlns="http://www.w3.org/2000/svg">
<path fill-rule="evenodd" clip-rule="evenodd" d="M18.0753 5.64205V4.70455H16.9814C16.9405 4.59634 16.8932 4.49122 16.8395 4.3892C16.6179 3.96307 16.2798 3.625 15.8253 3.375C15.3736 3.125 14.804 3 14.1165 3H11.0483V4.70455H10V5.64205H11.0483V6.06392H10V7.00142H11.0483V11.7273H12.3608V8.67188H14.1293C14.8111 8.67188 15.3764 8.54545 15.8253 8.29261C16.277 8.03977 16.6151 7.69886 16.8395 7.26989C16.8852 7.18252 16.9263 7.09303 16.9627 7.00142H18.0753V6.06392H17.1686C17.1736 5.98693 17.1761 5.90881 17.1761 5.82955C17.1761 5.76629 17.1746 5.70379 17.1714 5.64205H18.0753ZM15.5441 4.70455C15.44 4.56472 15.3064 4.44682 15.1435 4.35085C14.8906 4.20028 14.5483 4.125 14.1165 4.125H12.3608V4.70455H15.5441ZM15.8567 5.64205H12.3608V6.06392H15.8535C15.8603 5.98894 15.8636 5.91224 15.8636 5.83381C15.8636 5.7685 15.8613 5.70458 15.8567 5.64205ZM15.5198 7.00142H12.3608V7.5554H14.1293C14.5554 7.5554 14.8949 7.47869 15.1477 7.32528C15.2962 7.23457 15.4202 7.12661 15.5198 7.00142ZM26.2359 18.3844C27.0703 17.7703 27.2484 16.5984 26.6344 15.7641C26.0203 14.9297 24.8484 14.7516 24.0141 15.3656L18.4031 19.5H12.75C12.3375 19.5 12 19.1625 12 18.75C12 18.3375 12.3375 18 12.75 18H16.5C17.3297 18 18 17.3297 18 16.5C18 15.6703 17.3297 15 16.5 15H9.07969C7.71563 15 6.39375 15.4594 5.32969 16.3125L3.225 18H1.5C0.670313 18 0 18.6703 0 19.5V22.5C0 23.3297 0.670313 24 1.5 24H16.5188C17.8828 24 19.2047 23.5641 20.3016 22.7578L26.2359 18.3844Z" fill="white"/>
</svg>
