<svg width="20" height="20" viewBox="0 0 20 20" fill="none" xmlns="http://www.w3.org/2000/svg">
<path d="M10 0C4.5 0 0 4.5 0 10C0 15.5 4.5 20 10 20C15.5 20 20 15.5 20 10C20 4.5 15.5 0 10 0ZM10 15.9C6.8 15.9 4.1 13.3 4.1 10C4.1 8.3 4.9 6.6 6.2 5.5C6.6 5.2 7.3 5.2 7.6 5.6C8 6.1 7.9 6.7 7.5 7.1C6.6 7.8 6.1 8.9 6.1 10.1C6.1 12.2 7.8 14 10 14C12.2 14 13.9 12.3 13.9 10.1C13.9 9 13.4 7.9 12.5 7.1C12.1 6.8 12 6.1 12.4 5.7C12.8 5.3 13.4 5.2 13.8 5.6C15.1 6.7 15.9 8.4 15.9 10.1C15.9 13.3 13.2 15.9 10 15.9ZM10 3.5C10.5 3.5 11 3.9 11 4.5V8.2C11 8.7 10.5 9.2 10 9.2C9.5 9.2 9 8.7 9 8.2V4.5C9 3.9 9.5 3.5 10 3.5Z" fill="#A80000"/>
</svg>
