<svg width="212" height="62" viewBox="0 0 212 62" fill="none" xmlns="http://www.w3.org/2000/svg">
<path d="M39.8687 31.0348C40.646 31.3291 41.4934 31.6562 41.7608 31.757C42.0283 31.8577 42.2592 31.9501 42.2797 31.9555C42.3047 31.9635 42.3033 31.9979 42.2884 32.0249C42.271 32.0564 42.0408 32.2817 41.7777 32.5241C41.51 32.764 41.1069 33.164 40.8783 33.4078C40.6496 33.6516 40.287 34.074 40.0734 34.3437C39.8598 34.6135 39.6089 34.9507 39.5088 35.0893C39.4133 35.2304 39.2913 35.398 39.1429 35.5921L38.4514 35.2806C38.0649 35.1082 37.5305 34.8953 37.2556 34.808C36.9807 34.7208 36.5259 34.587 36.246 34.5088C35.9636 34.435 35.3284 34.2662 34.8316 34.1446C34.3374 34.0184 33.5782 33.787 33.1497 33.6267C32.7188 33.4709 32.1209 33.2346 31.8199 33.1095C31.406 32.9336 29.7851 32.05 25.0984 29.4317C21.7031 27.5384 16.5022 24.6066 13.5379 22.9221C10.5736 21.2376 7.51969 19.4918 6.75095 19.0437C5.89017 18.5388 5.42549 18.2527 5.55045 18.2924C5.65942 18.3291 6.19432 18.5306 6.73775 18.7485C7.28367 18.962 8.09455 19.2807 8.54997 19.4559C9.00338 19.6241 10.3586 20.1378 11.5644 20.5924L11.5952 20.604C12.7901 21.0537 14.2051 21.5863 14.7488 21.7934C15.2972 22.0024 16.521 22.4669 17.4683 22.8257C18.4132 23.1891 19.9429 23.7698 20.8653 24.1207C21.7901 24.467 23.3653 25.0611 24.3696 25.4338C25.3714 25.811 27.26 26.5076 28.5638 26.987C29.8675 27.4663 31.6271 28.1094 32.4754 28.4135C33.3212 28.7221 34.297 29.0614 34.6424 29.17C34.9878 29.2785 35.9865 29.6187 36.8668 29.9288C37.7446 30.2433 39.0938 30.736 39.8687 31.0348Z" fill="url(#paint0_linear_514_894)"/>
<path d="M52.4761 38.7865C52.6125 38.6034 52.7583 38.4137 52.8042 38.3627C52.843 38.3136 52.8949 38.2836 52.9129 38.2935C52.9334 38.2989 52.9328 38.4807 52.9218 38.692C52.9109 38.9033 52.8694 39.2975 52.8306 39.5698C52.7942 39.8376 52.701 40.3148 52.6258 40.6316C52.5532 40.944 52.3986 41.4578 52.2914 41.7687C52.1843 42.0796 51.9788 42.6005 51.8387 42.9285C51.6867 43.2675 51.3993 43.8196 51.1571 44.2262C50.9248 44.6149 50.6864 44.9826 50.6172 45.0442C50.5549 45.1037 50.2786 45.2742 49.5134 45.6916L50.0585 44.7473C50.3833 44.1807 50.6956 43.5836 50.8356 43.2556C50.9607 42.9546 51.1294 42.4897 51.2137 42.2308C51.2935 41.9694 51.4004 41.5526 51.4542 41.3062C51.5126 41.0623 51.5889 40.6052 51.7151 39.7173L51.9691 39.417C52.1116 39.2549 52.3396 38.9696 52.4761 38.7865Z" fill="url(#paint1_linear_514_894)"/>
<path d="M45.2279 26.9164C45.5113 27.0201 45.8263 27.1412 45.9303 27.1869C46.0343 27.2326 46.4979 27.4887 46.968 27.7543C47.4356 28.0244 47.9984 28.3881 48.2261 28.5609C48.4513 28.7382 48.6989 28.9279 48.768 28.9836C48.8416 29.0419 48.8966 29.1017 48.8867 29.1197C48.8788 29.1447 48.6681 29.1752 48.4209 29.1972C48.1737 29.2193 47.8217 29.2716 47.3065 29.3747L46.8687 29.0506C46.6276 28.8704 46.1263 28.523 45.7471 28.2842C45.3029 28.0036 44.8148 27.728 44.3563 27.5159C43.9658 27.3295 43.3483 27.0648 42.9854 26.9348C42.6249 26.8003 41.9691 26.5732 41.5308 26.4309C41.0949 26.2841 40.7344 26.1496 40.7284 26.1286C40.7224 26.1077 41.088 26.1158 41.5425 26.1436C41.9971 26.1715 42.6206 26.234 42.9314 26.2881C43.2422 26.3423 43.7689 26.4629 44.1057 26.555C44.4426 26.6471 44.9469 26.8082 45.2279 26.9164Z" fill="url(#paint2_linear_514_894)"/>
<path d="M48.3002 29.671C48.5818 29.6504 48.9504 29.6425 49.1202 29.6541C49.2901 29.6656 49.4615 29.6957 49.4999 29.7111C49.536 29.731 49.7327 29.9278 49.933 30.1501C50.1333 30.3723 50.4168 30.6993 50.5591 30.8778C50.6989 31.0607 50.9665 31.4377 51.1505 31.7214C51.337 32.0007 51.5822 32.4181 51.6971 32.6461C51.812 32.8741 51.9767 33.2353 52.0646 33.4483C52.1505 33.6544 52.2119 33.841 52.202 33.8591C52.1896 33.8816 51.8904 33.8808 51.5367 33.8617C51.1876 33.845 50.8688 33.8158 50.8373 33.7984C50.8103 33.7835 50.6765 33.5685 50.544 33.3191C50.416 33.0722 50.1317 32.5979 49.9106 32.2643C49.6896 31.9307 49.3584 31.4775 49.174 31.2582C48.9897 31.0389 48.6617 30.6756 48.4454 30.4503C48.2291 30.2251 47.9833 29.9894 47.8987 29.9192C47.8161 29.856 47.7595 29.7777 47.7719 29.7552C47.7869 29.7282 48.023 29.6942 48.3002 29.671Z" fill="url(#paint3_linear_514_894)"/>
<path d="M41.9625 27.3508C42.7676 27.3609 42.7906 27.3618 43.334 27.5798C43.6375 27.7004 44.2941 28.022 44.7917 28.291C45.2893 28.56 45.907 28.9306 46.1621 29.1068C46.4173 29.283 46.6335 29.4553 46.639 29.4877C46.6491 29.5227 46.4072 29.6416 46.1078 29.7582C45.8059 29.8793 45.4337 30.032 45.274 30.1083C45.1169 30.1801 44.7308 30.3898 44.4081 30.5699C44.0924 30.748 43.5982 31.0683 43.3115 31.2683C42.9106 31.5579 42.7669 31.6372 42.676 31.6104C42.617 31.5896 42.0551 31.3732 41.4322 31.129C40.8093 30.8847 39.9549 30.5596 39.54 30.4068C39.1251 30.254 38.2568 29.9329 37.6129 29.6947C36.9715 29.452 36.2801 29.1935 36.0807 29.1186C35.8837 29.0391 35.6592 28.9562 35.5823 28.9255C35.5073 28.9017 35.4607 28.8583 35.4732 28.8358C35.4881 28.8088 35.8193 28.6452 36.218 28.4659C36.6141 28.2912 37.3012 28.0363 37.7489 27.8959C38.1986 27.7624 38.7686 27.6132 39.0237 27.5662C39.2763 27.5236 39.6748 27.4617 39.9174 27.4371C40.1601 27.4126 40.5321 27.3772 40.7489 27.3677C40.9681 27.3537 41.5115 27.3484 41.9625 27.3508Z" fill="url(#paint4_linear_514_894)"/>
<path d="M46.0611 30.2787C46.2482 30.2059 46.5751 30.0927 46.7827 30.0253L47.1675 29.903L47.4918 30.1879C47.6695 30.3448 47.9333 30.5904 48.079 30.7414C48.2247 30.8924 48.4931 31.1934 48.6774 31.4127C48.8643 31.6275 49.198 32.0762 49.424 32.4008C49.65 32.7254 49.9228 33.1463 50.0321 33.3418C50.146 33.5399 50.2168 33.72 50.1929 33.742C50.176 33.762 49.9207 33.7562 49.632 33.7259C49.3432 33.6956 48.8106 33.607 48.4453 33.5345C48.0825 33.4574 47.6013 33.3502 47.3759 33.2903L47.3433 33.2809C47.1099 33.2135 46.6706 33.0866 46.3413 32.9831C45.9959 32.8746 45.5825 32.7402 45.4216 32.6807C45.2581 32.6256 44.7777 32.4425 44.3542 32.2732C43.9308 32.1039 43.5303 31.9355 43.3368 31.8286L43.9002 31.4467C44.2034 31.2382 44.7436 30.9197 45.0892 30.7406C45.4349 30.5614 45.874 30.3516 46.0611 30.2787Z" fill="url(#paint5_linear_514_894)"/>
<path d="M37.4614 25.7045C38.4496 26.0212 39.6837 26.4033 40.198 26.5464C40.7168 26.692 41.1716 26.8258 41.2101 26.8412C41.2506 26.8636 41.2521 26.882 41.2127 26.8896C41.1803 26.899 40.9651 26.9088 40.7221 26.9198L40.6659 26.9224C40.4032 26.93 39.9318 26.9751 39.6148 27.0173C39.3022 27.062 38.7595 27.1617 38.4041 27.2415C38.0557 27.3193 37.5925 27.4452 37.3779 27.5147C37.1608 27.5886 36.7117 27.7635 36.3769 27.9017C36.0421 28.0398 35.5637 28.2572 35.3098 28.3872C35.0464 28.5237 34.8103 28.6107 34.7514 28.5898C34.6969 28.5715 34.2744 28.3792 33.8138 28.1601C33.3558 27.9364 32.1282 27.3405 31.0836 26.8281C30.046 26.3136 28.6429 25.6208 27.9733 25.2803C27.3057 24.9467 25.7845 24.1593 24.5903 23.5348C23.4031 22.9084 20.784 21.5027 18.7666 20.4118C16.3801 19.1169 15.1313 18.4212 15.1757 18.4046C15.2151 18.397 15.8244 18.5808 16.5327 18.8194C17.241 19.0579 18.5462 19.5028 19.4269 19.8013C20.3122 20.1024 22.1696 20.7172 23.5457 21.1719C24.9288 21.6246 27.2361 22.3822 28.6692 22.8507C30.1043 23.3263 32.2666 24.0273 33.4727 24.4175C34.6788 24.8076 36.4758 25.3832 37.4614 25.7045Z" fill="url(#paint6_linear_514_894)"/>
<path d="M51.0074 34.3094L51.6302 34.3304C51.9704 34.3421 52.2821 34.3733 52.3296 34.3937C52.3701 34.416 52.4534 34.5737 52.5088 34.7394C52.5661 34.912 52.6589 35.2864 52.7161 35.5764C52.7732 35.8665 52.8448 36.3643 52.8616 36.6849C52.8987 37.1812 52.8895 37.2936 52.7925 37.4692C52.7284 37.5747 52.488 37.9354 52.2605 38.2621C52.0331 38.5888 51.8309 38.859 51.81 38.865C51.7915 38.8666 51.7695 38.8427 51.7639 38.8102C51.7563 38.7708 51.7513 38.5565 51.7513 38.3333C51.7582 38.108 51.7478 37.7439 51.7313 37.5292C51.7173 37.3099 51.6538 36.8401 51.588 36.4807C51.5267 36.1237 51.3733 35.4868 51.0074 34.3094Z" fill="url(#paint7_linear_514_894)"/>
<path d="M48.5469 34.0312C48.9306 34.1022 49.4773 34.1868 49.766 34.217C50.0593 34.2498 50.3381 34.2981 50.3966 34.3304C50.4576 34.3582 50.5629 34.5398 50.6524 34.7713C50.7333 34.9864 50.8666 35.3831 50.9432 35.6486C51.0217 35.9211 51.1229 36.4293 51.1706 36.7788C51.2184 37.1283 51.2691 37.6322 51.2812 37.8974C51.2933 38.1625 51.2909 38.6136 51.2721 38.9028C51.2534 39.192 51.2096 39.4733 51.1843 39.5298C51.1519 39.5883 50.996 39.743 50.836 39.8838C50.674 40.0175 50.4457 40.1969 50.325 40.2771C50.2068 40.3528 49.9429 40.5007 49.7409 40.6006C49.5414 40.696 49.1601 40.8437 48.8991 40.9228C48.6381 41.0018 48.3311 41.079 48.2083 41.0993C48.074 41.1191 47.9915 41.1088 47.984 41.0693C47.9764 41.0299 47.9757 40.7652 47.9805 40.48C47.9878 40.1903 47.9651 39.6784 47.9353 39.3388C47.9101 39.0018 47.8358 38.4555 47.7731 38.133C47.7129 37.8061 47.5662 37.2315 47.4549 36.8587C47.3416 36.4789 47.139 35.9205 47.0024 35.6042C46.8678 35.2948 46.6474 34.8324 46.508 34.585C46.3755 34.3356 46.1268 33.9456 45.6608 33.3004L45.8632 33.3594C45.9747 33.3916 46.4709 33.5247 46.9602 33.6599C47.454 33.7976 48.1676 33.9627 48.5469 34.0312Z" fill="url(#paint8_linear_514_894)"/>
<path d="M42.8752 32.1963L43.6205 32.4847C44.033 32.6421 44.4224 32.7984 44.4834 32.8263C44.5489 32.8566 44.7556 33.0354 44.9414 33.2202C45.1316 33.4076 45.4297 33.772 45.6126 34.0257C45.793 34.284 46.0688 34.7419 46.2244 35.0452C46.3799 35.3484 46.6039 35.8364 46.7139 36.1263C46.8285 36.4187 47.0031 36.9322 47.0973 37.2721C47.194 37.6075 47.3091 38.1117 47.3577 38.3853C47.4038 38.6634 47.4608 39.1237 47.4835 39.4123C47.5132 39.699 47.5323 40.1854 47.5266 40.4936C47.5233 40.7972 47.505 41.075 47.4826 41.1155C47.4647 41.1585 47.2225 41.1716 46.8369 41.1465C46.5017 41.1258 46.153 41.0977 46.0616 41.0825C45.9747 41.0697 45.7033 41.0079 45.4619 40.945C45.1681 40.8708 44.8286 40.7303 44.407 40.5151C44.0305 40.3247 43.6484 40.1018 43.4342 39.9365C43.2446 39.7906 42.8831 39.4559 42.6383 39.1973C42.3934 38.9386 41.9697 38.4402 41.6941 38.0882C41.4231 37.7388 41.0544 37.3001 40.8802 37.1158C40.7104 36.9339 40.4006 36.6334 40.1918 36.4476C39.9851 36.2688 39.7449 36.0656 39.5037 35.8854L39.6874 35.6168C39.7854 35.4712 40.0921 35.0649 40.3665 34.7171C40.6433 34.3648 41.0472 33.8889 41.2639 33.6561C41.4876 33.4213 41.8379 33.0744 42.0482 32.8851C42.261 32.6913 42.5307 32.4584 42.8752 32.1963Z" fill="url(#paint9_linear_514_894)"/>
<path d="M50.0714 40.9594C50.2974 40.8375 50.6185 40.639 50.7826 40.5122C50.9486 40.3924 51.0997 40.2997 51.1172 40.3211C51.1373 40.338 51.1168 40.5559 51.072 40.8072C51.0296 41.054 50.9238 41.5008 50.8381 41.7942C50.7594 42.0855 50.5773 42.5959 50.4462 42.9289C50.3132 43.2548 50.0314 43.8394 49.8176 44.2265C49.5615 44.6901 49.2863 45.1138 48.994 45.5046C48.7217 45.8593 48.4682 46.1481 48.3236 46.2504C48.2024 46.342 47.8921 46.4996 47.6392 46.6066C47.3887 46.7091 46.9221 46.8626 46.6011 46.9438C46.2847 47.0274 45.8948 47.1058 45.733 47.1221C45.5712 47.1385 45.4493 47.1358 45.4593 47.1178C45.4692 47.0998 45.5927 46.9507 45.7352 46.7885C45.8756 46.6194 46.2091 46.1221 46.4762 45.6704C46.7901 45.1448 47.0397 44.6717 47.1702 44.3502C47.283 44.0717 47.4521 43.5954 47.5428 43.293C47.636 42.9861 47.7601 42.4848 47.9154 41.6189L48.1565 41.5759C48.2908 41.5561 48.6816 41.4547 49.031 41.354C49.3804 41.2533 49.8479 41.0768 50.0714 40.9594Z" fill="url(#paint10_linear_514_894)"/>
<path d="M36.9773 35.1948C37.2792 35.2969 37.5787 35.4036 37.6447 35.4224C37.7126 35.4482 38.0147 35.6033 38.8749 36.0667L38.4472 36.8409C38.211 37.2685 37.9401 37.8121 37.8383 38.0496C37.7434 38.285 37.5791 38.6995 37.4829 38.9694C37.3866 39.2394 37.2439 39.6892 37.1656 39.9691C37.0919 40.2515 37.02 40.4879 37.0126 40.5014C37.0076 40.5104 36.8756 40.4727 36.7127 40.4062C36.5542 40.3422 36.0245 40.2375 35.5119 40.1659C35.0108 40.0946 34.4257 39.9947 34.2093 39.9397C33.9974 39.8873 33.622 39.7798 33.3771 39.6915C33.1366 39.6057 32.6612 39.4135 32.3247 39.257C31.9902 39.1075 31.5502 38.8938 31.3521 38.7844C31.1541 38.675 30.6498 38.3436 30.2316 38.0479C29.8133 37.7522 28.8002 37.0339 27.9727 36.4476C27.1522 35.8592 26.0049 35.0433 25.4261 34.6237C24.8492 34.211 23.9706 33.5788 23.4698 33.2199C22.971 32.868 21.9809 32.1507 21.2659 31.6265C20.5554 31.1048 18.9443 29.9269 17.691 29.0055C16.4421 28.0865 14.8871 26.9455 14.2412 26.477C13.5952 26.0086 13.0519 25.6203 13.0339 25.6104C13.0159 25.6004 13.0103 25.568 13.0228 25.5455C13.0377 25.5185 13.1381 25.5387 13.2536 25.5849C13.3621 25.6331 13.9091 25.8765 14.4601 26.1339C15.0181 26.3893 17.1181 27.3202 19.13 28.2084C21.1464 29.099 23.0274 29.9266 23.3099 30.0533C23.5994 30.178 24.3113 30.4949 24.8948 30.7467C25.4803 31.0055 26.6767 31.5196 27.5522 31.8916C28.4321 32.266 29.679 32.7845 30.3244 33.0411C30.9718 33.3048 31.8667 33.6522 32.3066 33.813C32.751 33.9763 33.3044 34.1762 33.5313 34.2546C33.7653 34.3309 34.5094 34.5364 35.1931 34.7026C35.8743 34.8733 36.6799 35.0951 36.9773 35.1948Z" fill="url(#paint11_linear_514_894)"/>
<path d="M39.0091 36.6638C39.1091 36.4722 39.2076 36.3152 39.2286 36.3091C39.2495 36.3031 39.3886 36.3916 39.5292 36.4987C39.6768 36.6037 39.9656 36.8572 40.1783 37.057C40.3911 37.2568 40.7241 37.6111 40.9194 37.8424C41.1123 38.0782 41.3884 38.4716 41.5258 38.712C41.7059 39.0347 41.8557 39.4229 42.043 40.0727C42.1982 40.6108 42.3199 41.1774 42.3365 41.445C42.3561 41.6967 42.37 42.0862 42.3676 42.314C42.3631 42.5348 42.3152 42.9724 42.2565 43.2807C42.2003 43.5845 42.0672 44.0808 41.956 44.3777C41.8136 44.7632 41.6779 45.0407 41.4709 45.3728C41.3157 45.6219 41.149 45.8706 41.1056 45.9171C41.0598 45.9682 40.9899 45.9883 40.9449 45.9634C40.8999 45.9386 40.7533 45.8106 40.6136 45.6805C40.4785 45.553 40.2296 45.2804 40.0653 45.078C39.9055 44.8781 39.6724 44.5555 39.5541 44.355C39.4377 44.1615 39.076 43.4976 38.7514 42.8836C38.4313 42.272 38.0887 41.648 37.9889 41.4989C37.8937 41.3523 37.7273 41.143 37.6167 41.0348C37.4395 40.8665 37.4209 40.8151 37.4545 40.6691L37.4575 40.6564C37.4819 40.5538 37.5408 40.3064 37.6024 40.0929C37.6623 39.8675 37.8175 39.3951 37.9401 39.0457C38.0696 38.6943 38.3198 38.0924 38.5012 37.7108C38.6806 37.3223 38.9092 36.8553 39.0091 36.6638Z" fill="url(#paint12_linear_514_894)"/>
<path d="M45.8803 41.5169C46.1477 41.5647 46.5993 41.6086 46.8845 41.6134C47.1722 41.6137 47.4199 41.6331 47.433 41.652C47.4505 41.6735 47.4156 41.9068 47.3653 42.1786C47.3105 42.448 47.224 42.8173 47.1705 42.9992C47.124 43.1791 46.9955 43.5605 46.8918 43.8439C46.7877 44.1389 46.5457 44.6514 46.3219 45.0565C46.115 45.4416 45.814 45.9332 45.6508 46.1544C45.4899 46.3711 45.2255 46.7008 44.7623 47.2204L44.2068 47.1838C43.8991 47.1665 43.4869 47.1151 43.284 47.0676C43.0856 47.0226 42.7988 46.9464 42.6443 46.8963C42.4944 46.8487 42.1389 46.7053 41.3509 46.3346L41.4694 46.1944C41.5371 46.1143 41.7133 45.8592 41.8636 45.6191C42.0581 45.3095 42.2013 45.0184 42.3487 44.624C42.4628 44.3111 42.6011 43.8588 42.6569 43.6194C42.7108 43.373 42.7689 43.0233 42.7879 42.8399C42.8024 42.6541 42.8104 42.2355 42.7986 41.9059C42.7869 41.5763 42.7488 41.1029 42.7037 40.8548C42.6611 40.6022 42.5904 40.2517 42.5425 40.0725C42.4906 39.8794 42.4818 39.757 42.5223 39.7794C42.5603 39.8063 42.6825 39.9149 42.7951 40.03C42.9258 40.155 43.275 40.3949 43.6881 40.6466C44.2138 40.9605 44.4958 41.0987 44.8858 41.2436C45.1717 41.3428 45.62 41.4671 45.8803 41.5169Z" fill="url(#paint13_linear_514_894)"/>
<path d="M48.3374 46.8102C48.6163 46.6882 48.9196 46.5326 49.0188 46.4699C49.1161 46.4003 49.2144 46.3606 49.2324 46.3705C49.2549 46.383 49.2559 46.4129 49.243 46.4469C49.2256 46.4784 49.0133 46.6608 48.773 46.8511C48.5372 47.044 48.1907 47.299 48.0082 47.4273C47.8237 47.5486 47.4602 47.7708 47.2008 47.9212C46.9394 48.0647 46.46 48.3051 46.1387 48.4507C45.8175 48.5963 45.282 48.7999 44.9511 48.8991C44.6177 49.0028 44.0667 49.139 43.7212 49.2007C43.3802 49.265 42.9169 49.338 42.6927 49.361C42.473 49.3865 42.2723 49.399 42.2543 49.389C42.2362 49.3791 42.3729 49.3019 42.556 49.215C42.7411 49.1352 43.0255 48.9926 43.1901 48.9073C43.3572 48.8175 43.6948 48.6104 43.9411 48.441C44.1944 48.2696 44.513 48.0226 44.6585 47.8974C44.8977 47.6771 44.9516 47.6539 45.2747 47.6327C45.471 47.6177 45.9133 47.5507 46.2543 47.4865C46.5998 47.4247 47.0929 47.2977 47.3569 47.2026C47.6229 47.1146 48.063 46.9347 48.3374 46.8102Z" fill="url(#paint14_linear_514_894)"/>
<path d="M35.3471 40.5918C35.8253 40.6621 36.2619 40.7329 36.3189 40.7468C36.3759 40.7606 36.5294 40.8337 36.6624 40.9013C36.8179 40.9813 36.898 41.0491 36.8871 41.09C36.8787 41.1265 36.8315 41.4353 36.7714 41.7781C36.7183 42.1188 36.652 42.7813 36.6301 43.2568C36.6063 43.7253 36.6034 44.4111 36.6228 44.7801C36.6447 45.1447 36.7055 45.7364 36.7623 46.0909C36.8191 46.4454 36.8573 46.7484 36.8428 46.7639C36.8329 46.782 36.782 46.7891 36.734 46.7802C36.6815 46.7688 36.3776 46.6597 36.0606 46.5316C35.6212 46.3593 35.2582 46.1764 34.5504 45.7561C34.0403 45.4566 33.4055 45.0531 33.1398 44.8535C32.8786 44.6563 31.6357 43.7053 30.3752 42.7329C29.1192 41.763 27.6381 40.6158 27.0827 40.1856C26.5342 39.7534 24.9635 38.545 23.6025 37.4995C22.239 36.4584 20.5902 35.1892 19.9322 34.6789C19.2787 34.171 18.5316 33.5879 18.2709 33.3793C18.0147 33.1731 17.4883 32.7648 17.1 32.4681C16.7162 32.1738 16.3594 31.8945 16.3104 31.8557C16.2593 31.8098 16.2292 31.758 16.2392 31.74C16.2491 31.722 17.2127 32.1896 18.3878 32.7742C19.5559 33.3607 20.9811 34.0775 21.5472 34.3608C22.1177 34.6466 23.2404 35.2198 24.0475 35.6304C24.8546 36.041 26.6943 36.9751 28.1305 37.7038C29.5687 38.4396 31.1204 39.2145 31.5809 39.4336C32.0415 39.6528 32.6314 39.9141 32.8944 40.0123C33.1528 40.1081 33.4773 40.2227 33.6092 40.2603C33.7412 40.298 33.9895 40.3588 34.1629 40.3959C34.3363 40.4329 34.869 40.5215 35.3471 40.5918Z" fill="url(#paint15_linear_514_894)"/>
<path d="M37.1797 42.0917C37.214 41.817 37.2598 41.5426 37.2741 41.4742C37.3038 41.3672 37.3153 41.3677 37.3904 41.4444C37.4345 41.4923 37.5307 41.6159 37.6024 41.7201C37.674 41.8243 38.0061 42.4249 38.3348 43.0529C38.6704 43.6789 39.0667 44.3972 39.2152 44.6495C39.3706 44.8999 39.6117 45.2504 39.7539 45.4289C39.9007 45.6098 40.1541 45.8849 40.3248 46.0438C40.4955 46.2028 40.6372 46.3398 40.6387 46.3582C40.6382 46.3697 40.5266 46.4549 40.3869 46.5481C40.2473 46.6414 39.894 46.7811 39.6031 46.8612C39.3141 46.9483 38.8762 47.0178 38.6295 47.0284C38.3898 47.0369 38.0177 47.0193 37.4152 46.9509L37.3163 46.5555C37.2584 46.3414 37.1825 45.947 37.1494 45.6879C37.1143 45.4218 37.0773 44.9783 37.0656 44.7017C37.052 44.418 37.06 43.8291 37.0804 43.3881C37.0964 42.9445 37.1434 42.3595 37.1797 42.0917Z" fill="url(#paint16_linear_514_894)"/>
<path d="M43.3976 47.5533C43.6239 47.5902 43.8827 47.6216 43.9771 47.6208C44.076 47.6226 44.1724 47.6289 44.1904 47.6388C44.2084 47.6487 44.2194 47.6607 44.2215 47.6677C44.2165 47.6767 44.0834 47.7794 43.9218 47.9017C43.7628 48.0194 43.4576 48.2209 43.2452 48.3503C43.0307 48.4727 42.6356 48.6774 42.3567 48.7994C42.0803 48.917 41.5593 49.105 41.194 49.2028C40.7607 49.3277 40.4177 49.385 40.188 49.3755C39.9972 49.37 39.6625 49.3378 39.4336 49.3054C39.2093 49.2755 38.8575 49.2104 38.2718 49.069L38.0596 48.6874C37.9393 48.4799 37.7676 48.1207 37.6781 47.8892C37.5862 47.6622 37.5368 47.4645 37.5672 47.452C37.5952 47.4439 37.7745 47.449 37.9693 47.4685C38.1572 47.49 38.5093 47.4906 38.7585 47.4756C39.0007 47.4625 39.3831 47.3976 39.6017 47.3422C39.8228 47.2822 40.1592 47.1625 40.3448 47.0712C40.5303 46.9798 40.7687 46.8354 41.0679 46.6129L41.5855 46.8989C41.8711 47.0625 42.3026 47.2598 42.5455 47.3411C42.7929 47.4249 43.1733 47.5234 43.3976 47.5533Z" fill="url(#paint17_linear_514_894)"/>
<path d="M31.4914 44.36C31.3957 44.2248 31.3294 44.1001 31.3439 44.0846C31.3559 44.0736 31.4189 44.1084 31.4854 44.1687C31.5545 44.2245 31.8978 44.4963 32.2456 44.7707C32.6003 45.043 33.1457 45.4383 33.4614 45.6538C33.8175 45.8917 34.4022 46.2264 34.9793 46.5217C35.7229 46.909 36.0259 47.0411 36.979 47.315L37.1525 47.7986C37.252 48.065 37.3852 48.4088 37.455 48.559C37.5248 48.7092 37.5655 48.8374 37.5491 48.846C37.5351 48.85 37.2742 48.7587 36.9727 48.6451C36.6353 48.5115 36.0757 48.2377 35.5246 47.9274C35.0295 47.6538 34.4502 47.2986 34.2291 47.1353C34.0124 46.9745 33.6761 46.7006 33.4784 46.5268C33.2852 46.3555 32.9704 46.064 32.7801 45.8767C32.5944 45.6919 32.2664 45.3285 32.049 45.0733C31.8361 44.8206 31.5846 44.4996 31.4914 44.36Z" fill="url(#paint18_linear_514_894)"/>
<g filter="url(#filter0_d_514_894)">
<path d="M67.1582 46.1691V15.2316H75.332C77.043 15.2316 78.3965 15.6124 79.3926 16.3741C80.4004 17.1359 81.1211 18.2198 81.5547 19.6261C81.9883 21.0323 82.2051 22.7081 82.2051 24.6534C82.2051 26.5284 82.0234 28.1632 81.6602 29.5577C81.2969 30.9406 80.6465 32.0128 79.709 32.7745C78.7832 33.5363 77.4648 33.9171 75.7539 33.9171H73.2402V46.1691H67.1582ZM73.2402 28.3624H73.5918C74.7402 28.3624 75.4434 28.0402 75.7012 27.3956C75.959 26.7511 76.0879 25.8019 76.0879 24.548C76.0879 23.3761 75.959 22.4738 75.7012 21.8409C75.4551 21.1964 74.8633 20.8741 73.9258 20.8741H73.2402V28.3624Z" fill="url(#paint19_linear_514_894)"/>
<path d="M89.8672 46.4503C88.4023 46.4503 87.2832 46.1105 86.5098 45.4308C85.748 44.7511 85.2266 43.8195 84.9453 42.6359C84.6641 41.4523 84.5234 40.1105 84.5234 38.6105C84.5234 37.005 84.6816 35.6925 84.998 34.673C85.3145 33.6417 85.8535 32.798 86.6152 32.1417C87.3887 31.4855 88.4492 30.9288 89.7969 30.4718L93.6992 29.1359V26.4288C93.6992 25.0109 93.2363 24.3019 92.3105 24.3019C91.4668 24.3019 91.0449 24.8761 91.0449 26.0245V27.6066H84.9277C84.916 27.5128 84.9102 27.3956 84.9102 27.255C84.9102 27.1027 84.9102 26.9327 84.9102 26.7452C84.9102 24.1202 85.5254 22.2628 86.7559 21.173C87.998 20.0714 89.9609 19.5206 92.6445 19.5206C94.0508 19.5206 95.3105 19.7726 96.4238 20.2765C97.5371 20.7687 98.416 21.5011 99.0605 22.4738C99.7168 23.4464 100.045 24.6476 100.045 26.0773V46.1691H93.7871V43.0402C93.4824 44.1417 92.9785 44.9855 92.2754 45.5714C91.5723 46.1573 90.7695 46.4503 89.8672 46.4503ZM92.3457 41.5636C92.8613 41.5636 93.2129 41.3468 93.4004 40.9132C93.5879 40.4796 93.6816 40.0109 93.6816 39.507V32.1593C92.8145 32.5109 92.1406 32.9562 91.6602 33.4952C91.1797 34.0226 90.9395 34.8019 90.9395 35.8331V39.2257C90.9395 40.7843 91.4082 41.5636 92.3457 41.5636Z" fill="url(#paint20_linear_514_894)"/>
<path d="M103.471 46.1691V19.8019H109.764V23.1593C109.998 22.1515 110.432 21.296 111.064 20.5929C111.709 19.8781 112.6 19.5206 113.736 19.5206C115.564 19.5206 116.889 20.0831 117.709 21.2081C118.541 22.3331 118.957 23.8741 118.957 25.8312V46.1691H112.752V26.4816C112.752 25.9659 112.646 25.4913 112.436 25.0577C112.225 24.6124 111.861 24.3898 111.346 24.3898C110.865 24.3898 110.508 24.5597 110.273 24.8995C110.051 25.2277 109.91 25.6437 109.852 26.1476C109.793 26.6398 109.764 27.132 109.764 27.6241V46.1691H103.471Z" fill="url(#paint21_linear_514_894)"/>
<path d="M127.234 46.4503C125.77 46.4503 124.65 46.1105 123.877 45.4308C123.115 44.7511 122.594 43.8195 122.312 42.6359C122.031 41.4523 121.891 40.1105 121.891 38.6105C121.891 37.005 122.049 35.6925 122.365 34.673C122.682 33.6417 123.221 32.798 123.982 32.1417C124.756 31.4855 125.816 30.9288 127.164 30.4718L131.066 29.1359V26.4288C131.066 25.0109 130.604 24.3019 129.678 24.3019C128.834 24.3019 128.412 24.8761 128.412 26.0245V27.6066H122.295C122.283 27.5128 122.277 27.3956 122.277 27.255C122.277 27.1027 122.277 26.9327 122.277 26.7452C122.277 24.1202 122.893 22.2628 124.123 21.173C125.365 20.0714 127.328 19.5206 130.012 19.5206C131.418 19.5206 132.678 19.7726 133.791 20.2765C134.904 20.7687 135.783 21.5011 136.428 22.4738C137.084 23.4464 137.412 24.6476 137.412 26.0773V46.1691H131.154V43.0402C130.85 44.1417 130.346 44.9855 129.643 45.5714C128.939 46.1573 128.137 46.4503 127.234 46.4503ZM129.713 41.5636C130.229 41.5636 130.58 41.3468 130.768 40.9132C130.955 40.4796 131.049 40.0109 131.049 39.507V32.1593C130.182 32.5109 129.508 32.9562 129.027 33.4952C128.547 34.0226 128.307 34.8019 128.307 35.8331V39.2257C128.307 40.7843 128.775 41.5636 129.713 41.5636Z" fill="url(#paint22_linear_514_894)"/>
<path d="M140.838 46.1691V15.2316H147.236V46.1691H140.838Z" fill="url(#paint23_linear_514_894)"/>
<path d="M158.432 46.4503C153.182 46.4503 150.557 43.7257 150.557 38.2765V27.6945C150.557 25.2101 151.254 23.2296 152.648 21.7531C154.043 20.2648 155.971 19.5206 158.432 19.5206C160.904 19.5206 162.838 20.2648 164.232 21.7531C165.627 23.2296 166.324 25.2101 166.324 27.6945V38.2765C166.324 43.7257 163.693 46.4503 158.432 46.4503ZM158.432 41.5988C158.959 41.5988 159.334 41.4113 159.557 41.0363C159.791 40.6495 159.908 40.1632 159.908 39.5773V26.6925C159.908 25.1573 159.416 24.3898 158.432 24.3898C157.447 24.3898 156.955 25.1573 156.955 26.6925V39.5773C156.955 40.1632 157.066 40.6495 157.289 41.0363C157.523 41.4113 157.904 41.5988 158.432 41.5988Z" fill="url(#paint24_linear_514_894)"/>
<path d="M175.076 46.4503C173.377 46.4503 172.229 46.0929 171.631 45.3781C171.045 44.6515 170.752 43.5441 170.752 42.0558V25.6202H168.977V20.8214H170.752V15.2316H176.869V20.8214H178.645V25.6202H176.869V40.5792C176.869 41.0128 176.939 41.3175 177.08 41.4933C177.221 41.6691 177.49 41.757 177.889 41.757C178.17 41.757 178.422 41.7335 178.645 41.6866V45.9757C178.504 46.0226 178.064 46.1105 177.326 46.2394C176.588 46.38 175.838 46.4503 175.076 46.4503Z" fill="url(#paint25_linear_514_894)"/>
<path d="M189.33 46.4503C184.08 46.4503 181.455 43.7257 181.455 38.2765V27.6945C181.455 25.2101 182.152 23.2296 183.547 21.7531C184.941 20.2648 186.869 19.5206 189.33 19.5206C191.803 19.5206 193.736 20.2648 195.131 21.7531C196.525 23.2296 197.223 25.2101 197.223 27.6945V38.2765C197.223 43.7257 194.592 46.4503 189.33 46.4503ZM189.33 41.5988C189.857 41.5988 190.232 41.4113 190.455 41.0363C190.689 40.6495 190.807 40.1632 190.807 39.5773V26.6925C190.807 25.1573 190.314 24.3898 189.33 24.3898C188.346 24.3898 187.854 25.1573 187.854 26.6925V39.5773C187.854 40.1632 187.965 40.6495 188.188 41.0363C188.422 41.4113 188.803 41.5988 189.33 41.5988Z" fill="url(#paint26_linear_514_894)"/>
</g>
<defs>
<filter id="filter0_d_514_894" x="67.1582" y="15.2316" width="135.064" height="35.2188" filterUnits="userSpaceOnUse" color-interpolation-filters="sRGB">
<feFlood flood-opacity="0" result="BackgroundImageFix"/>
<feColorMatrix in="SourceAlpha" type="matrix" values="0 0 0 0 0 0 0 0 0 0 0 0 0 0 0 0 0 0 127 0" result="hardAlpha"/>
<feOffset dx="5" dy="4"/>
<feComposite in2="hardAlpha" operator="out"/>
<feColorMatrix type="matrix" values="0 0 0 0 0.937255 0 0 0 0 0.647059 0 0 0 0 0 0 0 0 0.12 0"/>
<feBlend mode="normal" in2="BackgroundImageFix" result="effect1_dropShadow_514_894"/>
<feBlend mode="normal" in="SourceGraphic" in2="effect1_dropShadow_514_894" result="shape"/>
</filter>
<linearGradient id="paint0_linear_514_894" x1="5.60696" y1="18.1516" x2="51.5485" y2="43.5303" gradientUnits="userSpaceOnUse">
<stop offset="0.2254" stop-color="#8C4D00"/>
<stop offset="0.2278" stop-color="#8D4F01"/>
<stop offset="0.3112" stop-color="#B6842D"/>
<stop offset="0.3891" stop-color="#D5AD50"/>
<stop offset="0.4593" stop-color="#ECCB69"/>
<stop offset="0.5194" stop-color="#FADD78"/>
<stop offset="0.5622" stop-color="#FFE47D"/>
<stop offset="0.59" stop-color="#FFE177"/>
<stop offset="0.6269" stop-color="#FDD866"/>
<stop offset="0.6687" stop-color="#FBCA4B"/>
<stop offset="0.7138" stop-color="#F8B625"/>
<stop offset="0.7513" stop-color="#F5A300"/>
<stop offset="0.783" stop-color="#EF9F00"/>
<stop offset="0.8251" stop-color="#DE9400"/>
<stop offset="0.8732" stop-color="#C28100"/>
<stop offset="0.9253" stop-color="#9C6700"/>
<stop offset="0.9352" stop-color="#946200"/>
</linearGradient>
<linearGradient id="paint1_linear_514_894" x1="5.60696" y1="18.1516" x2="51.5485" y2="43.5303" gradientUnits="userSpaceOnUse">
<stop offset="0.2254" stop-color="#8C4D00"/>
<stop offset="0.2278" stop-color="#8D4F01"/>
<stop offset="0.3112" stop-color="#B6842D"/>
<stop offset="0.3891" stop-color="#D5AD50"/>
<stop offset="0.4593" stop-color="#ECCB69"/>
<stop offset="0.5194" stop-color="#FADD78"/>
<stop offset="0.5622" stop-color="#FFE47D"/>
<stop offset="0.59" stop-color="#FFE177"/>
<stop offset="0.6269" stop-color="#FDD866"/>
<stop offset="0.6687" stop-color="#FBCA4B"/>
<stop offset="0.7138" stop-color="#F8B625"/>
<stop offset="0.7513" stop-color="#F5A300"/>
<stop offset="0.783" stop-color="#EF9F00"/>
<stop offset="0.8251" stop-color="#DE9400"/>
<stop offset="0.8732" stop-color="#C28100"/>
<stop offset="0.9253" stop-color="#9C6700"/>
<stop offset="0.9352" stop-color="#946200"/>
</linearGradient>
<linearGradient id="paint2_linear_514_894" x1="5.60696" y1="18.1516" x2="51.5485" y2="43.5303" gradientUnits="userSpaceOnUse">
<stop offset="0.2254" stop-color="#8C4D00"/>
<stop offset="0.2278" stop-color="#8D4F01"/>
<stop offset="0.3112" stop-color="#B6842D"/>
<stop offset="0.3891" stop-color="#D5AD50"/>
<stop offset="0.4593" stop-color="#ECCB69"/>
<stop offset="0.5194" stop-color="#FADD78"/>
<stop offset="0.5622" stop-color="#FFE47D"/>
<stop offset="0.59" stop-color="#FFE177"/>
<stop offset="0.6269" stop-color="#FDD866"/>
<stop offset="0.6687" stop-color="#FBCA4B"/>
<stop offset="0.7138" stop-color="#F8B625"/>
<stop offset="0.7513" stop-color="#F5A300"/>
<stop offset="0.783" stop-color="#EF9F00"/>
<stop offset="0.8251" stop-color="#DE9400"/>
<stop offset="0.8732" stop-color="#C28100"/>
<stop offset="0.9253" stop-color="#9C6700"/>
<stop offset="0.9352" stop-color="#946200"/>
</linearGradient>
<linearGradient id="paint3_linear_514_894" x1="5.60696" y1="18.1516" x2="51.5485" y2="43.5303" gradientUnits="userSpaceOnUse">
<stop offset="0.2254" stop-color="#8C4D00"/>
<stop offset="0.2278" stop-color="#8D4F01"/>
<stop offset="0.3112" stop-color="#B6842D"/>
<stop offset="0.3891" stop-color="#D5AD50"/>
<stop offset="0.4593" stop-color="#ECCB69"/>
<stop offset="0.5194" stop-color="#FADD78"/>
<stop offset="0.5622" stop-color="#FFE47D"/>
<stop offset="0.59" stop-color="#FFE177"/>
<stop offset="0.6269" stop-color="#FDD866"/>
<stop offset="0.6687" stop-color="#FBCA4B"/>
<stop offset="0.7138" stop-color="#F8B625"/>
<stop offset="0.7513" stop-color="#F5A300"/>
<stop offset="0.783" stop-color="#EF9F00"/>
<stop offset="0.8251" stop-color="#DE9400"/>
<stop offset="0.8732" stop-color="#C28100"/>
<stop offset="0.9253" stop-color="#9C6700"/>
<stop offset="0.9352" stop-color="#946200"/>
</linearGradient>
<linearGradient id="paint4_linear_514_894" x1="5.60696" y1="18.1516" x2="51.5485" y2="43.5303" gradientUnits="userSpaceOnUse">
<stop offset="0.2254" stop-color="#8C4D00"/>
<stop offset="0.2278" stop-color="#8D4F01"/>
<stop offset="0.3112" stop-color="#B6842D"/>
<stop offset="0.3891" stop-color="#D5AD50"/>
<stop offset="0.4593" stop-color="#ECCB69"/>
<stop offset="0.5194" stop-color="#FADD78"/>
<stop offset="0.5622" stop-color="#FFE47D"/>
<stop offset="0.59" stop-color="#FFE177"/>
<stop offset="0.6269" stop-color="#FDD866"/>
<stop offset="0.6687" stop-color="#FBCA4B"/>
<stop offset="0.7138" stop-color="#F8B625"/>
<stop offset="0.7513" stop-color="#F5A300"/>
<stop offset="0.783" stop-color="#EF9F00"/>
<stop offset="0.8251" stop-color="#DE9400"/>
<stop offset="0.8732" stop-color="#C28100"/>
<stop offset="0.9253" stop-color="#9C6700"/>
<stop offset="0.9352" stop-color="#946200"/>
</linearGradient>
<linearGradient id="paint5_linear_514_894" x1="5.60696" y1="18.1516" x2="51.5485" y2="43.5303" gradientUnits="userSpaceOnUse">
<stop offset="0.2254" stop-color="#8C4D00"/>
<stop offset="0.2278" stop-color="#8D4F01"/>
<stop offset="0.3112" stop-color="#B6842D"/>
<stop offset="0.3891" stop-color="#D5AD50"/>
<stop offset="0.4593" stop-color="#ECCB69"/>
<stop offset="0.5194" stop-color="#FADD78"/>
<stop offset="0.5622" stop-color="#FFE47D"/>
<stop offset="0.59" stop-color="#FFE177"/>
<stop offset="0.6269" stop-color="#FDD866"/>
<stop offset="0.6687" stop-color="#FBCA4B"/>
<stop offset="0.7138" stop-color="#F8B625"/>
<stop offset="0.7513" stop-color="#F5A300"/>
<stop offset="0.783" stop-color="#EF9F00"/>
<stop offset="0.8251" stop-color="#DE9400"/>
<stop offset="0.8732" stop-color="#C28100"/>
<stop offset="0.9253" stop-color="#9C6700"/>
<stop offset="0.9352" stop-color="#946200"/>
</linearGradient>
<linearGradient id="paint6_linear_514_894" x1="5.60696" y1="18.1516" x2="51.5485" y2="43.5303" gradientUnits="userSpaceOnUse">
<stop offset="0.2254" stop-color="#8C4D00"/>
<stop offset="0.2278" stop-color="#8D4F01"/>
<stop offset="0.3112" stop-color="#B6842D"/>
<stop offset="0.3891" stop-color="#D5AD50"/>
<stop offset="0.4593" stop-color="#ECCB69"/>
<stop offset="0.5194" stop-color="#FADD78"/>
<stop offset="0.5622" stop-color="#FFE47D"/>
<stop offset="0.59" stop-color="#FFE177"/>
<stop offset="0.6269" stop-color="#FDD866"/>
<stop offset="0.6687" stop-color="#FBCA4B"/>
<stop offset="0.7138" stop-color="#F8B625"/>
<stop offset="0.7513" stop-color="#F5A300"/>
<stop offset="0.783" stop-color="#EF9F00"/>
<stop offset="0.8251" stop-color="#DE9400"/>
<stop offset="0.8732" stop-color="#C28100"/>
<stop offset="0.9253" stop-color="#9C6700"/>
<stop offset="0.9352" stop-color="#946200"/>
</linearGradient>
<linearGradient id="paint7_linear_514_894" x1="5.60696" y1="18.1516" x2="51.5485" y2="43.5303" gradientUnits="userSpaceOnUse">
<stop offset="0.2254" stop-color="#8C4D00"/>
<stop offset="0.2278" stop-color="#8D4F01"/>
<stop offset="0.3112" stop-color="#B6842D"/>
<stop offset="0.3891" stop-color="#D5AD50"/>
<stop offset="0.4593" stop-color="#ECCB69"/>
<stop offset="0.5194" stop-color="#FADD78"/>
<stop offset="0.5622" stop-color="#FFE47D"/>
<stop offset="0.59" stop-color="#FFE177"/>
<stop offset="0.6269" stop-color="#FDD866"/>
<stop offset="0.6687" stop-color="#FBCA4B"/>
<stop offset="0.7138" stop-color="#F8B625"/>
<stop offset="0.7513" stop-color="#F5A300"/>
<stop offset="0.783" stop-color="#EF9F00"/>
<stop offset="0.8251" stop-color="#DE9400"/>
<stop offset="0.8732" stop-color="#C28100"/>
<stop offset="0.9253" stop-color="#9C6700"/>
<stop offset="0.9352" stop-color="#946200"/>
</linearGradient>
<linearGradient id="paint8_linear_514_894" x1="5.60696" y1="18.1516" x2="51.5485" y2="43.5303" gradientUnits="userSpaceOnUse">
<stop offset="0.2254" stop-color="#8C4D00"/>
<stop offset="0.2278" stop-color="#8D4F01"/>
<stop offset="0.3112" stop-color="#B6842D"/>
<stop offset="0.3891" stop-color="#D5AD50"/>
<stop offset="0.4593" stop-color="#ECCB69"/>
<stop offset="0.5194" stop-color="#FADD78"/>
<stop offset="0.5622" stop-color="#FFE47D"/>
<stop offset="0.59" stop-color="#FFE177"/>
<stop offset="0.6269" stop-color="#FDD866"/>
<stop offset="0.6687" stop-color="#FBCA4B"/>
<stop offset="0.7138" stop-color="#F8B625"/>
<stop offset="0.7513" stop-color="#F5A300"/>
<stop offset="0.783" stop-color="#EF9F00"/>
<stop offset="0.8251" stop-color="#DE9400"/>
<stop offset="0.8732" stop-color="#C28100"/>
<stop offset="0.9253" stop-color="#9C6700"/>
<stop offset="0.9352" stop-color="#946200"/>
</linearGradient>
<linearGradient id="paint9_linear_514_894" x1="5.60696" y1="18.1516" x2="51.5485" y2="43.5303" gradientUnits="userSpaceOnUse">
<stop offset="0.2254" stop-color="#8C4D00"/>
<stop offset="0.2278" stop-color="#8D4F01"/>
<stop offset="0.3112" stop-color="#B6842D"/>
<stop offset="0.3891" stop-color="#D5AD50"/>
<stop offset="0.4593" stop-color="#ECCB69"/>
<stop offset="0.5194" stop-color="#FADD78"/>
<stop offset="0.5622" stop-color="#FFE47D"/>
<stop offset="0.59" stop-color="#FFE177"/>
<stop offset="0.6269" stop-color="#FDD866"/>
<stop offset="0.6687" stop-color="#FBCA4B"/>
<stop offset="0.7138" stop-color="#F8B625"/>
<stop offset="0.7513" stop-color="#F5A300"/>
<stop offset="0.783" stop-color="#EF9F00"/>
<stop offset="0.8251" stop-color="#DE9400"/>
<stop offset="0.8732" stop-color="#C28100"/>
<stop offset="0.9253" stop-color="#9C6700"/>
<stop offset="0.9352" stop-color="#946200"/>
</linearGradient>
<linearGradient id="paint10_linear_514_894" x1="5.60696" y1="18.1516" x2="51.5485" y2="43.5303" gradientUnits="userSpaceOnUse">
<stop offset="0.2254" stop-color="#8C4D00"/>
<stop offset="0.2278" stop-color="#8D4F01"/>
<stop offset="0.3112" stop-color="#B6842D"/>
<stop offset="0.3891" stop-color="#D5AD50"/>
<stop offset="0.4593" stop-color="#ECCB69"/>
<stop offset="0.5194" stop-color="#FADD78"/>
<stop offset="0.5622" stop-color="#FFE47D"/>
<stop offset="0.59" stop-color="#FFE177"/>
<stop offset="0.6269" stop-color="#FDD866"/>
<stop offset="0.6687" stop-color="#FBCA4B"/>
<stop offset="0.7138" stop-color="#F8B625"/>
<stop offset="0.7513" stop-color="#F5A300"/>
<stop offset="0.783" stop-color="#EF9F00"/>
<stop offset="0.8251" stop-color="#DE9400"/>
<stop offset="0.8732" stop-color="#C28100"/>
<stop offset="0.9253" stop-color="#9C6700"/>
<stop offset="0.9352" stop-color="#946200"/>
</linearGradient>
<linearGradient id="paint11_linear_514_894" x1="5.60696" y1="18.1516" x2="51.5485" y2="43.5303" gradientUnits="userSpaceOnUse">
<stop offset="0.2254" stop-color="#8C4D00"/>
<stop offset="0.2278" stop-color="#8D4F01"/>
<stop offset="0.3112" stop-color="#B6842D"/>
<stop offset="0.3891" stop-color="#D5AD50"/>
<stop offset="0.4593" stop-color="#ECCB69"/>
<stop offset="0.5194" stop-color="#FADD78"/>
<stop offset="0.5622" stop-color="#FFE47D"/>
<stop offset="0.59" stop-color="#FFE177"/>
<stop offset="0.6269" stop-color="#FDD866"/>
<stop offset="0.6687" stop-color="#FBCA4B"/>
<stop offset="0.7138" stop-color="#F8B625"/>
<stop offset="0.7513" stop-color="#F5A300"/>
<stop offset="0.783" stop-color="#EF9F00"/>
<stop offset="0.8251" stop-color="#DE9400"/>
<stop offset="0.8732" stop-color="#C28100"/>
<stop offset="0.9253" stop-color="#9C6700"/>
<stop offset="0.9352" stop-color="#946200"/>
</linearGradient>
<linearGradient id="paint12_linear_514_894" x1="5.60696" y1="18.1516" x2="51.5485" y2="43.5303" gradientUnits="userSpaceOnUse">
<stop offset="0.2254" stop-color="#8C4D00"/>
<stop offset="0.2278" stop-color="#8D4F01"/>
<stop offset="0.3112" stop-color="#B6842D"/>
<stop offset="0.3891" stop-color="#D5AD50"/>
<stop offset="0.4593" stop-color="#ECCB69"/>
<stop offset="0.5194" stop-color="#FADD78"/>
<stop offset="0.5622" stop-color="#FFE47D"/>
<stop offset="0.59" stop-color="#FFE177"/>
<stop offset="0.6269" stop-color="#FDD866"/>
<stop offset="0.6687" stop-color="#FBCA4B"/>
<stop offset="0.7138" stop-color="#F8B625"/>
<stop offset="0.7513" stop-color="#F5A300"/>
<stop offset="0.783" stop-color="#EF9F00"/>
<stop offset="0.8251" stop-color="#DE9400"/>
<stop offset="0.8732" stop-color="#C28100"/>
<stop offset="0.9253" stop-color="#9C6700"/>
<stop offset="0.9352" stop-color="#946200"/>
</linearGradient>
<linearGradient id="paint13_linear_514_894" x1="5.60696" y1="18.1516" x2="51.5485" y2="43.5303" gradientUnits="userSpaceOnUse">
<stop offset="0.2254" stop-color="#8C4D00"/>
<stop offset="0.2278" stop-color="#8D4F01"/>
<stop offset="0.3112" stop-color="#B6842D"/>
<stop offset="0.3891" stop-color="#D5AD50"/>
<stop offset="0.4593" stop-color="#ECCB69"/>
<stop offset="0.5194" stop-color="#FADD78"/>
<stop offset="0.5622" stop-color="#FFE47D"/>
<stop offset="0.59" stop-color="#FFE177"/>
<stop offset="0.6269" stop-color="#FDD866"/>
<stop offset="0.6687" stop-color="#FBCA4B"/>
<stop offset="0.7138" stop-color="#F8B625"/>
<stop offset="0.7513" stop-color="#F5A300"/>
<stop offset="0.783" stop-color="#EF9F00"/>
<stop offset="0.8251" stop-color="#DE9400"/>
<stop offset="0.8732" stop-color="#C28100"/>
<stop offset="0.9253" stop-color="#9C6700"/>
<stop offset="0.9352" stop-color="#946200"/>
</linearGradient>
<linearGradient id="paint14_linear_514_894" x1="5.60696" y1="18.1516" x2="51.5485" y2="43.5303" gradientUnits="userSpaceOnUse">
<stop offset="0.2254" stop-color="#8C4D00"/>
<stop offset="0.2278" stop-color="#8D4F01"/>
<stop offset="0.3112" stop-color="#B6842D"/>
<stop offset="0.3891" stop-color="#D5AD50"/>
<stop offset="0.4593" stop-color="#ECCB69"/>
<stop offset="0.5194" stop-color="#FADD78"/>
<stop offset="0.5622" stop-color="#FFE47D"/>
<stop offset="0.59" stop-color="#FFE177"/>
<stop offset="0.6269" stop-color="#FDD866"/>
<stop offset="0.6687" stop-color="#FBCA4B"/>
<stop offset="0.7138" stop-color="#F8B625"/>
<stop offset="0.7513" stop-color="#F5A300"/>
<stop offset="0.783" stop-color="#EF9F00"/>
<stop offset="0.8251" stop-color="#DE9400"/>
<stop offset="0.8732" stop-color="#C28100"/>
<stop offset="0.9253" stop-color="#9C6700"/>
<stop offset="0.9352" stop-color="#946200"/>
</linearGradient>
<linearGradient id="paint15_linear_514_894" x1="5.60696" y1="18.1516" x2="51.5485" y2="43.5303" gradientUnits="userSpaceOnUse">
<stop offset="0.2254" stop-color="#8C4D00"/>
<stop offset="0.2278" stop-color="#8D4F01"/>
<stop offset="0.3112" stop-color="#B6842D"/>
<stop offset="0.3891" stop-color="#D5AD50"/>
<stop offset="0.4593" stop-color="#ECCB69"/>
<stop offset="0.5194" stop-color="#FADD78"/>
<stop offset="0.5622" stop-color="#FFE47D"/>
<stop offset="0.59" stop-color="#FFE177"/>
<stop offset="0.6269" stop-color="#FDD866"/>
<stop offset="0.6687" stop-color="#FBCA4B"/>
<stop offset="0.7138" stop-color="#F8B625"/>
<stop offset="0.7513" stop-color="#F5A300"/>
<stop offset="0.783" stop-color="#EF9F00"/>
<stop offset="0.8251" stop-color="#DE9400"/>
<stop offset="0.8732" stop-color="#C28100"/>
<stop offset="0.9253" stop-color="#9C6700"/>
<stop offset="0.9352" stop-color="#946200"/>
</linearGradient>
<linearGradient id="paint16_linear_514_894" x1="5.60696" y1="18.1516" x2="51.5485" y2="43.5303" gradientUnits="userSpaceOnUse">
<stop offset="0.2254" stop-color="#8C4D00"/>
<stop offset="0.2278" stop-color="#8D4F01"/>
<stop offset="0.3112" stop-color="#B6842D"/>
<stop offset="0.3891" stop-color="#D5AD50"/>
<stop offset="0.4593" stop-color="#ECCB69"/>
<stop offset="0.5194" stop-color="#FADD78"/>
<stop offset="0.5622" stop-color="#FFE47D"/>
<stop offset="0.59" stop-color="#FFE177"/>
<stop offset="0.6269" stop-color="#FDD866"/>
<stop offset="0.6687" stop-color="#FBCA4B"/>
<stop offset="0.7138" stop-color="#F8B625"/>
<stop offset="0.7513" stop-color="#F5A300"/>
<stop offset="0.783" stop-color="#EF9F00"/>
<stop offset="0.8251" stop-color="#DE9400"/>
<stop offset="0.8732" stop-color="#C28100"/>
<stop offset="0.9253" stop-color="#9C6700"/>
<stop offset="0.9352" stop-color="#946200"/>
</linearGradient>
<linearGradient id="paint17_linear_514_894" x1="5.60696" y1="18.1516" x2="51.5485" y2="43.5303" gradientUnits="userSpaceOnUse">
<stop offset="0.2254" stop-color="#8C4D00"/>
<stop offset="0.2278" stop-color="#8D4F01"/>
<stop offset="0.3112" stop-color="#B6842D"/>
<stop offset="0.3891" stop-color="#D5AD50"/>
<stop offset="0.4593" stop-color="#ECCB69"/>
<stop offset="0.5194" stop-color="#FADD78"/>
<stop offset="0.5622" stop-color="#FFE47D"/>
<stop offset="0.59" stop-color="#FFE177"/>
<stop offset="0.6269" stop-color="#FDD866"/>
<stop offset="0.6687" stop-color="#FBCA4B"/>
<stop offset="0.7138" stop-color="#F8B625"/>
<stop offset="0.7513" stop-color="#F5A300"/>
<stop offset="0.783" stop-color="#EF9F00"/>
<stop offset="0.8251" stop-color="#DE9400"/>
<stop offset="0.8732" stop-color="#C28100"/>
<stop offset="0.9253" stop-color="#9C6700"/>
<stop offset="0.9352" stop-color="#946200"/>
</linearGradient>
<linearGradient id="paint18_linear_514_894" x1="5.60696" y1="18.1516" x2="51.5485" y2="43.5303" gradientUnits="userSpaceOnUse">
<stop offset="0.2254" stop-color="#8C4D00"/>
<stop offset="0.2278" stop-color="#8D4F01"/>
<stop offset="0.3112" stop-color="#B6842D"/>
<stop offset="0.3891" stop-color="#D5AD50"/>
<stop offset="0.4593" stop-color="#ECCB69"/>
<stop offset="0.5194" stop-color="#FADD78"/>
<stop offset="0.5622" stop-color="#FFE47D"/>
<stop offset="0.59" stop-color="#FFE177"/>
<stop offset="0.6269" stop-color="#FDD866"/>
<stop offset="0.6687" stop-color="#FBCA4B"/>
<stop offset="0.7138" stop-color="#F8B625"/>
<stop offset="0.7513" stop-color="#F5A300"/>
<stop offset="0.783" stop-color="#EF9F00"/>
<stop offset="0.8251" stop-color="#DE9400"/>
<stop offset="0.8732" stop-color="#C28100"/>
<stop offset="0.9253" stop-color="#9C6700"/>
<stop offset="0.9352" stop-color="#946200"/>
</linearGradient>
<linearGradient id="paint19_linear_514_894" x1="65.041" y1="30.6691" x2="199.041" y2="30.6691" gradientUnits="userSpaceOnUse">
<stop offset="0.2254" stop-color="#8C4D00"/>
<stop offset="0.2278" stop-color="#8D4F01"/>
<stop offset="0.3112" stop-color="#B6842D"/>
<stop offset="0.3891" stop-color="#D5AD50"/>
<stop offset="0.4593" stop-color="#ECCB69"/>
<stop offset="0.5194" stop-color="#FADD78"/>
<stop offset="0.5622" stop-color="#FFE47D"/>
<stop offset="0.59" stop-color="#FFE177"/>
<stop offset="0.6269" stop-color="#FDD866"/>
<stop offset="0.6687" stop-color="#FBCA4B"/>
<stop offset="0.7138" stop-color="#F8B625"/>
<stop offset="0.7513" stop-color="#F5A300"/>
<stop offset="0.783" stop-color="#EF9F00"/>
<stop offset="0.8251" stop-color="#DE9400"/>
<stop offset="0.8732" stop-color="#C28100"/>
<stop offset="0.9253" stop-color="#9C6700"/>
<stop offset="0.9352" stop-color="#946200"/>
</linearGradient>
<linearGradient id="paint20_linear_514_894" x1="65.041" y1="30.6691" x2="199.041" y2="30.6691" gradientUnits="userSpaceOnUse">
<stop offset="0.2254" stop-color="#8C4D00"/>
<stop offset="0.2278" stop-color="#8D4F01"/>
<stop offset="0.3112" stop-color="#B6842D"/>
<stop offset="0.3891" stop-color="#D5AD50"/>
<stop offset="0.4593" stop-color="#ECCB69"/>
<stop offset="0.5194" stop-color="#FADD78"/>
<stop offset="0.5622" stop-color="#FFE47D"/>
<stop offset="0.59" stop-color="#FFE177"/>
<stop offset="0.6269" stop-color="#FDD866"/>
<stop offset="0.6687" stop-color="#FBCA4B"/>
<stop offset="0.7138" stop-color="#F8B625"/>
<stop offset="0.7513" stop-color="#F5A300"/>
<stop offset="0.783" stop-color="#EF9F00"/>
<stop offset="0.8251" stop-color="#DE9400"/>
<stop offset="0.8732" stop-color="#C28100"/>
<stop offset="0.9253" stop-color="#9C6700"/>
<stop offset="0.9352" stop-color="#946200"/>
</linearGradient>
<linearGradient id="paint21_linear_514_894" x1="65.041" y1="30.6691" x2="199.041" y2="30.6691" gradientUnits="userSpaceOnUse">
<stop offset="0.2254" stop-color="#8C4D00"/>
<stop offset="0.2278" stop-color="#8D4F01"/>
<stop offset="0.3112" stop-color="#B6842D"/>
<stop offset="0.3891" stop-color="#D5AD50"/>
<stop offset="0.4593" stop-color="#ECCB69"/>
<stop offset="0.5194" stop-color="#FADD78"/>
<stop offset="0.5622" stop-color="#FFE47D"/>
<stop offset="0.59" stop-color="#FFE177"/>
<stop offset="0.6269" stop-color="#FDD866"/>
<stop offset="0.6687" stop-color="#FBCA4B"/>
<stop offset="0.7138" stop-color="#F8B625"/>
<stop offset="0.7513" stop-color="#F5A300"/>
<stop offset="0.783" stop-color="#EF9F00"/>
<stop offset="0.8251" stop-color="#DE9400"/>
<stop offset="0.8732" stop-color="#C28100"/>
<stop offset="0.9253" stop-color="#9C6700"/>
<stop offset="0.9352" stop-color="#946200"/>
</linearGradient>
<linearGradient id="paint22_linear_514_894" x1="65.041" y1="30.6691" x2="199.041" y2="30.6691" gradientUnits="userSpaceOnUse">
<stop offset="0.2254" stop-color="#8C4D00"/>
<stop offset="0.2278" stop-color="#8D4F01"/>
<stop offset="0.3112" stop-color="#B6842D"/>
<stop offset="0.3891" stop-color="#D5AD50"/>
<stop offset="0.4593" stop-color="#ECCB69"/>
<stop offset="0.5194" stop-color="#FADD78"/>
<stop offset="0.5622" stop-color="#FFE47D"/>
<stop offset="0.59" stop-color="#FFE177"/>
<stop offset="0.6269" stop-color="#FDD866"/>
<stop offset="0.6687" stop-color="#FBCA4B"/>
<stop offset="0.7138" stop-color="#F8B625"/>
<stop offset="0.7513" stop-color="#F5A300"/>
<stop offset="0.783" stop-color="#EF9F00"/>
<stop offset="0.8251" stop-color="#DE9400"/>
<stop offset="0.8732" stop-color="#C28100"/>
<stop offset="0.9253" stop-color="#9C6700"/>
<stop offset="0.9352" stop-color="#946200"/>
</linearGradient>
<linearGradient id="paint23_linear_514_894" x1="65.041" y1="30.6691" x2="199.041" y2="30.6691" gradientUnits="userSpaceOnUse">
<stop offset="0.2254" stop-color="#8C4D00"/>
<stop offset="0.2278" stop-color="#8D4F01"/>
<stop offset="0.3112" stop-color="#B6842D"/>
<stop offset="0.3891" stop-color="#D5AD50"/>
<stop offset="0.4593" stop-color="#ECCB69"/>
<stop offset="0.5194" stop-color="#FADD78"/>
<stop offset="0.5622" stop-color="#FFE47D"/>
<stop offset="0.59" stop-color="#FFE177"/>
<stop offset="0.6269" stop-color="#FDD866"/>
<stop offset="0.6687" stop-color="#FBCA4B"/>
<stop offset="0.7138" stop-color="#F8B625"/>
<stop offset="0.7513" stop-color="#F5A300"/>
<stop offset="0.783" stop-color="#EF9F00"/>
<stop offset="0.8251" stop-color="#DE9400"/>
<stop offset="0.8732" stop-color="#C28100"/>
<stop offset="0.9253" stop-color="#9C6700"/>
<stop offset="0.9352" stop-color="#946200"/>
</linearGradient>
<linearGradient id="paint24_linear_514_894" x1="65.041" y1="30.6691" x2="199.041" y2="30.6691" gradientUnits="userSpaceOnUse">
<stop offset="0.2254" stop-color="#8C4D00"/>
<stop offset="0.2278" stop-color="#8D4F01"/>
<stop offset="0.3112" stop-color="#B6842D"/>
<stop offset="0.3891" stop-color="#D5AD50"/>
<stop offset="0.4593" stop-color="#ECCB69"/>
<stop offset="0.5194" stop-color="#FADD78"/>
<stop offset="0.5622" stop-color="#FFE47D"/>
<stop offset="0.59" stop-color="#FFE177"/>
<stop offset="0.6269" stop-color="#FDD866"/>
<stop offset="0.6687" stop-color="#FBCA4B"/>
<stop offset="0.7138" stop-color="#F8B625"/>
<stop offset="0.7513" stop-color="#F5A300"/>
<stop offset="0.783" stop-color="#EF9F00"/>
<stop offset="0.8251" stop-color="#DE9400"/>
<stop offset="0.8732" stop-color="#C28100"/>
<stop offset="0.9253" stop-color="#9C6700"/>
<stop offset="0.9352" stop-color="#946200"/>
</linearGradient>
<linearGradient id="paint25_linear_514_894" x1="65.041" y1="30.6691" x2="199.041" y2="30.6691" gradientUnits="userSpaceOnUse">
<stop offset="0.2254" stop-color="#8C4D00"/>
<stop offset="0.2278" stop-color="#8D4F01"/>
<stop offset="0.3112" stop-color="#B6842D"/>
<stop offset="0.3891" stop-color="#D5AD50"/>
<stop offset="0.4593" stop-color="#ECCB69"/>
<stop offset="0.5194" stop-color="#FADD78"/>
<stop offset="0.5622" stop-color="#FFE47D"/>
<stop offset="0.59" stop-color="#FFE177"/>
<stop offset="0.6269" stop-color="#FDD866"/>
<stop offset="0.6687" stop-color="#FBCA4B"/>
<stop offset="0.7138" stop-color="#F8B625"/>
<stop offset="0.7513" stop-color="#F5A300"/>
<stop offset="0.783" stop-color="#EF9F00"/>
<stop offset="0.8251" stop-color="#DE9400"/>
<stop offset="0.8732" stop-color="#C28100"/>
<stop offset="0.9253" stop-color="#9C6700"/>
<stop offset="0.9352" stop-color="#946200"/>
</linearGradient>
<linearGradient id="paint26_linear_514_894" x1="65.041" y1="30.6691" x2="199.041" y2="30.6691" gradientUnits="userSpaceOnUse">
<stop offset="0.2254" stop-color="#8C4D00"/>
<stop offset="0.2278" stop-color="#8D4F01"/>
<stop offset="0.3112" stop-color="#B6842D"/>
<stop offset="0.3891" stop-color="#D5AD50"/>
<stop offset="0.4593" stop-color="#ECCB69"/>
<stop offset="0.5194" stop-color="#FADD78"/>
<stop offset="0.5622" stop-color="#FFE47D"/>
<stop offset="0.59" stop-color="#FFE177"/>
<stop offset="0.6269" stop-color="#FDD866"/>
<stop offset="0.6687" stop-color="#FBCA4B"/>
<stop offset="0.7138" stop-color="#F8B625"/>
<stop offset="0.7513" stop-color="#F5A300"/>
<stop offset="0.783" stop-color="#EF9F00"/>
<stop offset="0.8251" stop-color="#DE9400"/>
<stop offset="0.8732" stop-color="#C28100"/>
<stop offset="0.9253" stop-color="#9C6700"/>
<stop offset="0.9352" stop-color="#946200"/>
</linearGradient>
</defs>
</svg>
