<svg width="137" height="43" viewBox="0 0 137 43" fill="none" xmlns="http://www.w3.org/2000/svg">
<g filter="url(#filter0_d_1_721)">
<path d="M3.47266 34L0.150391 3.06248H6.19727L7.90234 22.5918L9.64258 3.06248H15.4082L17.0605 22.5918L18.7129 3.06248H24.8301L21.4551 34H14.0371L12.4902 19.1113L11.0137 34H3.47266ZM32.3691 34.2812C30.9043 34.2812 29.7852 33.9414 29.0117 33.2617C28.25 32.582 27.7285 31.6504 27.4473 30.4668C27.166 29.2832 27.0254 27.9414 27.0254 26.4414C27.0254 24.8359 27.1836 23.5234 27.5 22.5039C27.8164 21.4726 28.3555 20.6289 29.1172 19.9726C29.8906 19.3164 30.9512 18.7598 32.2988 18.3027L36.2012 16.9668V14.2598C36.2012 12.8418 35.7383 12.1328 34.8125 12.1328C33.9688 12.1328 33.5469 12.707 33.5469 13.8555V15.4375H27.4297C27.418 15.3437 27.4121 15.2265 27.4121 15.0859C27.4121 14.9336 27.4121 14.7637 27.4121 14.5762C27.4121 11.9512 28.0273 10.0937 29.2578 9.00389C30.5 7.90233 32.4629 7.35155 35.1465 7.35155C36.5527 7.35155 37.8125 7.6035 38.9258 8.10741C40.0391 8.59959 40.918 9.33202 41.5625 10.3047C42.2188 11.2773 42.5469 12.4785 42.5469 13.9082V34H36.2891V30.8711C35.9844 31.9726 35.4805 32.8164 34.7773 33.4023C34.0742 33.9883 33.2715 34.2812 32.3691 34.2812ZM34.8477 29.3945C35.3633 29.3945 35.7148 29.1777 35.9023 28.7441C36.0898 28.3105 36.1836 27.8418 36.1836 27.3379V19.9902C35.3164 20.3418 34.6426 20.7871 34.1621 21.3262C33.6816 21.8535 33.4414 22.6328 33.4414 23.664V27.0566C33.4414 28.6152 33.9102 29.3945 34.8477 29.3945ZM45.9727 34V7.6328H52.2656V10.9902C52.5 9.98241 52.9336 9.12694 53.5664 8.42381C54.2109 7.70897 55.1016 7.35155 56.2383 7.35155C58.0664 7.35155 59.3906 7.91405 60.2109 9.03905C61.043 10.164 61.459 11.7051 61.459 13.6621V34H55.2539V14.3125C55.2539 13.7969 55.1484 13.3223 54.9375 12.8887C54.7266 12.4433 54.3633 12.2207 53.8477 12.2207C53.3672 12.2207 53.0098 12.3906 52.7754 12.7305C52.5527 13.0586 52.4121 13.4746 52.3535 13.9785C52.2949 14.4707 52.2656 14.9629 52.2656 15.4551V34H45.9727ZM64.9375 38.3945V7.6328H71.3359V10.4453C71.7227 9.47264 72.2559 8.71678 72.9355 8.17772C73.627 7.62694 74.6113 7.35155 75.8887 7.35155C77.6113 7.35155 78.8242 7.9785 79.5273 9.23241C80.2422 10.4863 80.5996 12.1269 80.5996 14.1543V27.1269C80.5996 28.4746 80.4062 29.6933 80.0195 30.7832C79.6445 31.8613 79.0469 32.7168 78.2266 33.3496C77.418 33.9707 76.3574 34.2812 75.0449 34.2812C73.334 34.2812 72.0977 33.25 71.3359 31.1875V38.3945H64.9375ZM72.8301 29.3769C73.4863 29.3769 73.8789 29.0488 74.0078 28.3926C74.1484 27.7363 74.2188 26.9277 74.2188 25.9668V15.666C74.2188 14.6933 74.1484 13.8848 74.0078 13.2402C73.8789 12.584 73.4863 12.2558 72.8301 12.2558C72.1504 12.2558 71.7285 12.5898 71.5645 13.2578C71.4121 13.914 71.3359 14.7168 71.3359 15.666V25.9668C71.3359 26.916 71.4121 27.7246 71.5645 28.3926C71.7285 29.0488 72.1504 29.3769 72.8301 29.3769ZM83.9727 6.01561V0.777328H90.2656V6.01561H83.9727ZM83.9727 34V7.6328H90.2656V34H83.9727ZM93.7617 38.3945V7.6328H100.16V10.4453C100.547 9.47264 101.08 8.71678 101.76 8.17772C102.451 7.62694 103.436 7.35155 104.713 7.35155C106.436 7.35155 107.648 7.9785 108.352 9.23241C109.066 10.4863 109.424 12.1269 109.424 14.1543V27.1269C109.424 28.4746 109.23 29.6933 108.844 30.7832C108.469 31.8613 107.871 32.7168 107.051 33.3496C106.242 33.9707 105.182 34.2812 103.869 34.2812C102.158 34.2812 100.922 33.25 100.16 31.1875V38.3945H93.7617ZM101.654 29.3769C102.311 29.3769 102.703 29.0488 102.832 28.3926C102.973 27.7363 103.043 26.9277 103.043 25.9668V15.666C103.043 14.6933 102.973 13.8848 102.832 13.2402C102.703 12.584 102.311 12.2558 101.654 12.2558C100.975 12.2558 100.553 12.5898 100.389 13.2578C100.236 13.914 100.16 14.7168 100.16 15.666V25.9668C100.16 26.916 100.236 27.7246 100.389 28.3926C100.553 29.0488 100.975 29.3769 101.654 29.3769ZM118.246 34.2812C116.547 34.2812 115.398 33.9238 114.801 33.209C114.215 32.4824 113.922 31.375 113.922 29.8867V13.4512H112.146V8.65233H113.922V3.06248H120.039V8.65233H121.814V13.4512H120.039V28.4101C120.039 28.8437 120.109 29.1484 120.25 29.3242C120.391 29.5 120.66 29.5879 121.059 29.5879C121.34 29.5879 121.592 29.5644 121.814 29.5176V33.8066C121.674 33.8535 121.234 33.9414 120.496 34.0703C119.758 34.2109 119.008 34.2812 118.246 34.2812ZM124.801 6.01561V0.777328H131.094V6.01561H124.801ZM124.801 34V7.6328H131.094V34H124.801Z" fill="url(#paint0_linear_1_721)"/>
</g>
<defs>
<filter id="filter0_d_1_721" x="0.150391" y="0.777328" width="135.943" height="41.6172" filterUnits="userSpaceOnUse" color-interpolation-filters="sRGB">
<feFlood flood-opacity="0" result="BackgroundImageFix"/>
<feColorMatrix in="SourceAlpha" type="matrix" values="0 0 0 0 0 0 0 0 0 0 0 0 0 0 0 0 0 0 127 0" result="hardAlpha"/>
<feOffset dx="5" dy="4"/>
<feComposite in2="hardAlpha" operator="out"/>
<feColorMatrix type="matrix" values="0 0 0 0 0.937255 0 0 0 0 0.647059 0 0 0 0 0 0 0 0 0.12 0"/>
<feBlend mode="normal" in2="BackgroundImageFix" result="effect1_dropShadow_1_721"/>
<feBlend mode="normal" in="SourceGraphic" in2="effect1_dropShadow_1_721" result="shape"/>
</filter>
<linearGradient id="paint0_linear_1_721" x1="-1" y1="18.5" x2="133" y2="18.5" gradientUnits="userSpaceOnUse">
<stop offset="0.2254" stop-color="#8C4D00"/>
<stop offset="0.2278" stop-color="#8D4F01"/>
<stop offset="0.3112" stop-color="#B6842D"/>
<stop offset="0.3891" stop-color="#D5AD50"/>
<stop offset="0.4593" stop-color="#ECCB69"/>
<stop offset="0.5194" stop-color="#FADD78"/>
<stop offset="0.5622" stop-color="#FFE47D"/>
<stop offset="0.59" stop-color="#FFE177"/>
<stop offset="0.6269" stop-color="#FDD866"/>
<stop offset="0.6687" stop-color="#FBCA4B"/>
<stop offset="0.7138" stop-color="#F8B625"/>
<stop offset="0.7513" stop-color="#F5A300"/>
<stop offset="0.783" stop-color="#EF9F00"/>
<stop offset="0.8251" stop-color="#DE9400"/>
<stop offset="0.8732" stop-color="#C28100"/>
<stop offset="0.9253" stop-color="#9C6700"/>
<stop offset="0.9352" stop-color="#946200"/>
</linearGradient>
</defs>
</svg>
