<svg width="48" height="32" viewBox="0 0 48 32" fill="none" xmlns="http://www.w3.org/2000/svg">
<path d="M34.8687 13.0348C35.646 13.3291 36.4934 13.6562 36.7608 13.757C37.0283 13.8577 37.2592 13.9501 37.2797 13.9555C37.3047 13.9635 37.3033 13.9979 37.2884 14.0249C37.271 14.0564 37.0408 14.2817 36.7777 14.5241C36.51 14.764 36.1069 15.164 35.8783 15.4078C35.6496 15.6516 35.287 16.074 35.0734 16.3437C34.8598 16.6135 34.6089 16.9507 34.5088 17.0893C34.4133 17.2304 34.2913 17.398 34.1429 17.5921L33.4514 17.2806C33.0649 17.1082 32.5305 16.8953 32.2556 16.808C31.9807 16.7208 31.5259 16.587 31.246 16.5088C30.9636 16.435 30.3284 16.2662 29.8316 16.1446C29.3374 16.0184 28.5782 15.787 28.1497 15.6267C27.7188 15.4709 27.1209 15.2346 26.8199 15.1095C26.406 14.9336 24.7851 14.05 20.0984 11.4317C16.7031 9.5384 11.5022 6.60663 8.53787 4.92211C5.57356 3.23758 2.51969 1.49185 1.75095 1.04369C0.89017 0.538811 0.425489 0.252742 0.550448 0.292398C0.659417 0.329095 1.19432 0.530588 1.73775 0.748541C2.28367 0.961993 3.09455 1.28069 3.54997 1.4559C4.00338 1.62413 5.35864 2.1378 6.56442 2.5924L6.59516 2.60397C7.79007 3.05369 9.2051 3.58625 9.74883 3.79342C10.2972 4.00237 11.521 4.46692 12.4683 4.82575C13.4132 5.18908 14.9429 5.76976 15.8653 6.12065C16.7901 6.46705 18.3653 7.0611 19.3696 7.43378C20.3714 7.81095 22.26 8.50765 23.5638 8.98698C24.8675 9.46632 26.6271 10.1094 27.4754 10.4135C28.3212 10.7221 29.297 11.0614 29.6424 11.17C29.9878 11.2785 30.9865 11.6187 31.8668 11.9288C32.7446 12.2433 34.0938 12.736 34.8687 13.0348Z" fill="url(#paint0_linear_514_895)"/>
<path d="M47.4761 20.7865C47.6125 20.6034 47.7583 20.4137 47.8042 20.3627C47.843 20.3136 47.8949 20.2836 47.9129 20.2935C47.9334 20.2989 47.9328 20.4807 47.9218 20.692C47.9109 20.9033 47.8694 21.2975 47.8306 21.5698C47.7942 21.8376 47.701 22.3148 47.6258 22.6316C47.5532 22.944 47.3986 23.4578 47.2914 23.7687C47.1843 24.0796 46.9788 24.6005 46.8387 24.9285C46.6867 25.2675 46.3993 25.8196 46.1571 26.2262C45.9248 26.6149 45.6864 26.9826 45.6172 27.0442C45.5549 27.1037 45.2786 27.2742 44.5134 27.6916L45.0585 26.7473C45.3833 26.1807 45.6956 25.5836 45.8356 25.2556C45.9607 24.9546 46.1294 24.4897 46.2137 24.2308C46.2935 23.9694 46.4004 23.5526 46.4542 23.3062C46.5126 23.0623 46.5889 22.6052 46.7151 21.7173L46.9691 21.417C47.1116 21.2549 47.3396 20.9696 47.4761 20.7865Z" fill="url(#paint1_linear_514_895)"/>
<path d="M40.2279 8.91643C40.5113 9.02013 40.8263 9.14124 40.9303 9.18694C41.0343 9.23264 41.4979 9.48874 41.968 9.75432C42.4356 10.0244 42.9984 10.3881 43.2261 10.5609C43.4513 10.7382 43.6989 10.9279 43.768 10.9836C43.8416 11.0419 43.8966 11.1017 43.8867 11.1197C43.8788 11.1447 43.6681 11.1752 43.4209 11.1972C43.1737 11.2193 42.8217 11.2716 42.3065 11.3747L41.8687 11.0506C41.6276 10.8704 41.1263 10.523 40.7471 10.2842C40.3029 10.0036 39.8148 9.72804 39.3563 9.51587C38.9658 9.32952 38.3483 9.06479 37.9854 8.93481C37.6249 8.80032 36.9691 8.57315 36.5308 8.43086C36.0949 8.28407 35.7344 8.14959 35.7284 8.12862C35.7224 8.10766 36.088 8.11577 36.5425 8.14365C36.9971 8.17152 37.6206 8.23395 37.9314 8.28814C38.2422 8.34234 38.7689 8.46294 39.1057 8.55502C39.4426 8.64711 39.9469 8.80822 40.2279 8.91643Z" fill="url(#paint2_linear_514_895)"/>
<path d="M43.3002 11.671C43.5818 11.6504 43.9504 11.6425 44.1202 11.6541C44.2901 11.6656 44.4615 11.6957 44.4999 11.7111C44.536 11.731 44.7327 11.9278 44.933 12.1501C45.1333 12.3723 45.4168 12.6993 45.5591 12.8778C45.6989 13.0607 45.9665 13.4377 46.1505 13.7214C46.337 14.0007 46.5822 14.4181 46.6971 14.6461C46.812 14.8741 46.9767 15.2353 47.0646 15.4483C47.1505 15.6544 47.2119 15.841 47.202 15.8591C47.1896 15.8816 46.8904 15.8808 46.5367 15.8617C46.1876 15.845 45.8688 15.8158 45.8373 15.7984C45.8103 15.7835 45.6765 15.5685 45.544 15.3191C45.416 15.0722 45.1317 14.5979 44.9106 14.2643C44.6896 13.9307 44.3584 13.4775 44.174 13.2582C43.9897 13.0389 43.6617 12.6756 43.4454 12.4503C43.2291 12.2251 42.9833 11.9894 42.8987 11.9192C42.8161 11.856 42.7595 11.7777 42.7719 11.7552C42.7869 11.7282 43.023 11.6942 43.3002 11.671Z" fill="url(#paint3_linear_514_895)"/>
<path d="M36.9625 9.35082C37.7676 9.36087 37.7906 9.36181 38.334 9.57976C38.6375 9.7004 39.2941 10.022 39.7917 10.291C40.2893 10.56 40.907 10.9306 41.1621 11.1068C41.4173 11.283 41.6335 11.4553 41.639 11.4877C41.6491 11.5227 41.4072 11.6416 41.1078 11.7582C40.8059 11.8793 40.4337 12.032 40.274 12.1083C40.1169 12.1801 39.7308 12.3898 39.4081 12.5699C39.0924 12.748 38.5982 13.0683 38.3115 13.2683C37.9106 13.5579 37.7669 13.6372 37.676 13.6104C37.617 13.5896 37.0551 13.3732 36.4322 13.129C35.8093 12.8847 34.9549 12.5596 34.54 12.4068C34.1251 12.254 33.2568 11.9329 32.6129 11.6947C31.9715 11.452 31.2801 11.1935 31.0807 11.1186C30.8837 11.0391 30.6592 10.9562 30.5823 10.9255C30.5073 10.9017 30.4607 10.8583 30.4732 10.8358C30.4881 10.8088 30.8193 10.6452 31.218 10.4659C31.6141 10.2912 32.3012 10.0363 32.7489 9.89587C33.1986 9.76243 33.7686 9.61322 34.0237 9.56616C34.2763 9.5236 34.6748 9.46171 34.9174 9.43715C35.1601 9.41259 35.5321 9.37723 35.7489 9.36772C35.9681 9.35371 36.5115 9.34841 36.9625 9.35082Z" fill="url(#paint4_linear_514_895)"/>
<path d="M41.0611 12.2787C41.2482 12.2059 41.5751 12.0927 41.7827 12.0253L42.1675 11.903L42.4918 12.1879C42.6695 12.3448 42.9333 12.5904 43.079 12.7414C43.2247 12.8924 43.4931 13.1934 43.6774 13.4127C43.8643 13.6275 44.198 14.0762 44.424 14.4008C44.65 14.7254 44.9228 15.1463 45.0321 15.3418C45.146 15.5399 45.2168 15.72 45.1929 15.742C45.176 15.762 44.9207 15.7562 44.632 15.7259C44.3432 15.6956 43.8106 15.607 43.4453 15.5345C43.0825 15.4574 42.6013 15.3502 42.3759 15.2903L42.3433 15.2809C42.1099 15.2135 41.6706 15.0866 41.3413 14.9831C40.9959 14.8746 40.5825 14.7402 40.4216 14.6807C40.2581 14.6256 39.7777 14.4425 39.3542 14.2732C38.9308 14.1039 38.5303 13.9355 38.3368 13.8286L38.9002 13.4467C39.2034 13.2382 39.7436 12.9197 40.0892 12.7406C40.4349 12.5614 40.874 12.3516 41.0611 12.2787Z" fill="url(#paint5_linear_514_895)"/>
<path d="M32.4614 7.70446C33.4496 8.02123 34.6837 8.40334 35.198 8.54645C35.7168 8.69204 36.1716 8.8258 36.2101 8.84119C36.2506 8.86356 36.2521 8.88204 36.2127 8.88963C36.1803 8.89898 35.9651 8.90878 35.7221 8.91984L35.6659 8.92241C35.4032 8.93003 34.9318 8.97512 34.6148 9.01734C34.3022 9.06204 33.7595 9.16174 33.4041 9.24151C33.0557 9.31926 32.5925 9.44524 32.3779 9.51468C32.1608 9.58862 31.7117 9.76351 31.3769 9.90167C31.0421 10.0398 30.5637 10.2572 30.3098 10.3872C30.0464 10.5237 29.8103 10.6107 29.7514 10.5898C29.6969 10.5715 29.2744 10.3792 28.8138 10.1601C28.3558 9.9364 27.1282 9.34051 26.0836 8.82809C25.046 8.31365 23.6429 7.62078 22.9733 7.28027C22.3057 6.94674 20.7845 6.15926 19.5903 5.53482C18.4031 4.90836 15.784 3.50271 13.7666 2.41176C11.3801 1.11692 10.1313 0.421185 10.1757 0.404596C10.2151 0.397009 10.8244 0.580841 11.5327 0.819375C12.241 1.05791 13.5462 1.50278 14.4269 1.80133C15.3122 2.10237 17.1696 2.71723 18.5457 3.17192C19.9288 3.62459 22.2361 4.38221 23.6692 4.85075C25.1043 5.32627 27.2666 6.0273 28.4727 6.41747C29.6788 6.80764 31.4758 7.38318 32.4614 7.70446Z" fill="url(#paint6_linear_514_895)"/>
<path d="M46.0074 16.3094L46.6302 16.3304C46.9704 16.3421 47.2821 16.3733 47.3296 16.3937C47.3701 16.416 47.4534 16.5737 47.5088 16.7394C47.5661 16.912 47.6589 17.2864 47.7161 17.5764C47.7732 17.8665 47.8448 18.3643 47.8616 18.6849C47.8987 19.1812 47.8895 19.2936 47.7925 19.4692C47.7284 19.5747 47.488 19.9354 47.2605 20.2621C47.0331 20.5888 46.8309 20.859 46.81 20.865C46.7915 20.8666 46.7695 20.8427 46.7639 20.8102C46.7563 20.7708 46.7513 20.5565 46.7513 20.3333C46.7582 20.108 46.7478 19.7439 46.7313 19.5292C46.7173 19.3099 46.6538 18.8401 46.588 18.4807C46.5267 18.1237 46.3733 17.4868 46.0074 16.3094Z" fill="url(#paint7_linear_514_895)"/>
<path d="M43.5469 16.0312C43.9306 16.1022 44.4773 16.1868 44.766 16.217C45.0593 16.2498 45.3381 16.2981 45.3966 16.3304C45.4576 16.3582 45.5629 16.5398 45.6524 16.7713C45.7333 16.9864 45.8666 17.3831 45.9432 17.6486C46.0217 17.9211 46.1229 18.4293 46.1706 18.7788C46.2184 19.1283 46.2691 19.6322 46.2812 19.8974C46.2933 20.1625 46.2909 20.6136 46.2721 20.9028C46.2534 21.192 46.2096 21.4733 46.1843 21.5298C46.1519 21.5883 45.996 21.743 45.836 21.8838C45.674 22.0175 45.4457 22.1969 45.325 22.2771C45.2068 22.3528 44.9429 22.5007 44.7409 22.6006C44.5414 22.696 44.1601 22.8437 43.8991 22.9228C43.6381 23.0018 43.3311 23.079 43.2083 23.0993C43.074 23.1191 42.9915 23.1088 42.984 23.0693C42.9764 23.0299 42.9757 22.7652 42.9805 22.48C42.9878 22.1903 42.9651 21.6784 42.9353 21.3388C42.9101 21.0018 42.8358 20.4555 42.7731 20.133C42.7129 19.8061 42.5662 19.2315 42.4549 18.8587C42.3416 18.4789 42.139 17.9205 42.0024 17.6042C41.8678 17.2948 41.6474 16.8324 41.508 16.585C41.3755 16.3356 41.1268 15.9456 40.6608 15.3004L40.8632 15.3594C40.9747 15.3916 41.4709 15.5247 41.9602 15.6599C42.454 15.7976 43.1676 15.9627 43.5469 16.0312Z" fill="url(#paint8_linear_514_895)"/>
<path d="M37.8752 14.1963L38.6205 14.4847C39.033 14.6421 39.4224 14.7984 39.4834 14.8263C39.5489 14.8566 39.7556 15.0354 39.9414 15.2202C40.1316 15.4076 40.4297 15.772 40.6126 16.0257C40.793 16.284 41.0688 16.7419 41.2244 17.0452C41.3799 17.3484 41.6039 17.8364 41.7139 18.1263C41.8285 18.4187 42.0031 18.9322 42.0973 19.2721C42.194 19.6075 42.3091 20.1117 42.3577 20.3853C42.4038 20.6634 42.4608 21.1237 42.4835 21.4123C42.5132 21.699 42.5323 22.1854 42.5266 22.4936C42.5233 22.7972 42.505 23.075 42.4826 23.1155C42.4647 23.1585 42.2225 23.1716 41.8369 23.1465C41.5017 23.1258 41.153 23.0977 41.0616 23.0825C40.9747 23.0697 40.7033 23.0079 40.4619 22.945C40.1681 22.8708 39.8286 22.7303 39.407 22.5151C39.0305 22.3247 38.6484 22.1018 38.4342 21.9365C38.2446 21.7906 37.8831 21.4559 37.6383 21.1973C37.3934 20.9386 36.9697 20.4402 36.6941 20.0882C36.4231 19.7388 36.0544 19.3001 35.8802 19.1158C35.7104 18.9339 35.4006 18.6334 35.1918 18.4476C34.9851 18.2688 34.7449 18.0656 34.5037 17.8854L34.6874 17.6168C34.7854 17.4712 35.0921 17.0649 35.3665 16.7171C35.6433 16.3648 36.0472 15.8889 36.2639 15.6561C36.4876 15.4213 36.8379 15.0744 37.0482 14.8851C37.261 14.6913 37.5307 14.4584 37.8752 14.1963Z" fill="url(#paint9_linear_514_895)"/>
<path d="M45.0714 22.9594C45.2974 22.8375 45.6185 22.639 45.7826 22.5122C45.9486 22.3924 46.0997 22.2997 46.1172 22.3211C46.1373 22.338 46.1168 22.5559 46.072 22.8072C46.0296 23.054 45.9238 23.5008 45.8381 23.7942C45.7594 24.0855 45.5773 24.5959 45.4462 24.9289C45.3132 25.2548 45.0314 25.8394 44.8176 26.2265C44.5615 26.6901 44.2863 27.1138 43.994 27.5046C43.7217 27.8593 43.4682 28.1481 43.3236 28.2504C43.2024 28.342 42.8921 28.4996 42.6392 28.6066C42.3887 28.7091 41.9221 28.8626 41.6011 28.9438C41.2847 29.0274 40.8948 29.1058 40.733 29.1221C40.5712 29.1385 40.4493 29.1358 40.4593 29.1178C40.4692 29.0998 40.5927 28.9507 40.7352 28.7885C40.8756 28.6194 41.2091 28.1221 41.4762 27.6704C41.7901 27.1448 42.0397 26.6717 42.1702 26.3502C42.283 26.0717 42.4521 25.5954 42.5428 25.293C42.636 24.9861 42.7601 24.4848 42.9154 23.6189L43.1565 23.5759C43.2908 23.5561 43.6816 23.4547 44.031 23.354C44.3804 23.2533 44.8479 23.0768 45.0714 22.9594Z" fill="url(#paint10_linear_514_895)"/>
<path d="M31.9773 17.1948C32.2792 17.2969 32.5787 17.4036 32.6447 17.4224C32.7126 17.4482 33.0147 17.6033 33.8749 18.0667L33.4472 18.8409C33.211 19.2685 32.9401 19.8121 32.8383 20.0496C32.7434 20.285 32.5791 20.6995 32.4829 20.9694C32.3866 21.2394 32.2439 21.6892 32.1656 21.9691C32.0919 22.2515 32.02 22.4879 32.0126 22.5014C32.0076 22.5104 31.8756 22.4727 31.7127 22.4062C31.5542 22.3422 31.0245 22.2375 30.5119 22.1659C30.0108 22.0946 29.4257 21.9947 29.2093 21.9397C28.9974 21.8873 28.622 21.7798 28.3771 21.6915C28.1366 21.6057 27.6612 21.4135 27.3247 21.257C26.9902 21.1075 26.5502 20.8938 26.3521 20.7844C26.1541 20.675 25.6498 20.3436 25.2316 20.0479C24.8133 19.7522 23.8002 19.0339 22.9727 18.4476C22.1522 17.8592 21.0049 17.0433 20.4261 16.6237C19.8492 16.211 18.9706 15.5788 18.4698 15.2199C17.971 14.868 16.9809 14.1507 16.2659 13.6265C15.5554 13.1048 13.9443 11.9269 12.691 11.0055C11.4421 10.0865 9.88709 8.94546 9.24117 8.47703C8.59524 8.0086 8.0519 7.62033 8.0339 7.61038C8.01589 7.60044 8.01032 7.56799 8.02275 7.54548C8.03767 7.51848 8.13811 7.53871 8.2536 7.58488C8.36209 7.63307 8.90908 7.87649 9.4601 8.13388C10.0181 8.38926 12.1181 9.32018 14.13 10.2084C16.1464 11.099 18.0274 11.9266 18.3099 12.0533C18.5994 12.178 19.3113 12.4949 19.8948 12.7467C20.4803 13.0055 21.6767 13.5196 22.5522 13.8916C23.4321 14.266 24.679 14.7845 25.3244 15.0411C25.9718 15.3048 26.8667 15.6522 27.3066 15.813C27.751 15.9763 28.3044 16.1762 28.5313 16.2546C28.7653 16.3309 29.5094 16.5364 30.1931 16.7026C30.8743 16.8733 31.6799 17.0951 31.9773 17.1948Z" fill="url(#paint11_linear_514_895)"/>
<path d="M34.0091 18.6638C34.1091 18.4722 34.2076 18.3152 34.2286 18.3091C34.2495 18.3031 34.3886 18.3916 34.5292 18.4987C34.6768 18.6037 34.9656 18.8572 35.1783 19.057C35.3911 19.2568 35.7241 19.6111 35.9194 19.8424C36.1123 20.0782 36.3884 20.4716 36.5258 20.712C36.7059 21.0347 36.8557 21.4229 37.043 22.0727C37.1982 22.6108 37.3199 23.1774 37.3365 23.445C37.3561 23.6967 37.37 24.0862 37.3676 24.314C37.3631 24.5348 37.3152 24.9724 37.2565 25.2807C37.2003 25.5845 37.0672 26.0808 36.956 26.3777C36.8136 26.7632 36.6779 27.0407 36.4709 27.3728C36.3157 27.6219 36.149 27.8706 36.1056 27.9171C36.0598 27.9682 35.9899 27.9883 35.9449 27.9634C35.8999 27.9386 35.7533 27.8106 35.6136 27.6805C35.4785 27.553 35.2296 27.2804 35.0653 27.078C34.9055 26.8781 34.6724 26.5555 34.5541 26.355C34.4377 26.1615 34.076 25.4976 33.7514 24.8836C33.4313 24.272 33.0887 23.648 32.9889 23.4989C32.8937 23.3523 32.7273 23.143 32.6167 23.0348C32.4395 22.8665 32.4209 22.8151 32.4545 22.6691L32.4575 22.6564C32.4819 22.5538 32.5408 22.3064 32.6024 22.0929C32.6623 21.8675 32.8175 21.3951 32.9401 21.0457C33.0696 20.6943 33.3198 20.0924 33.5012 19.7108C33.6806 19.3223 33.9092 18.8553 34.0091 18.6638Z" fill="url(#paint12_linear_514_895)"/>
<path d="M40.8803 23.5169C41.1477 23.5647 41.5993 23.6086 41.8845 23.6134C42.1722 23.6137 42.4199 23.6331 42.433 23.652C42.4505 23.6735 42.4156 23.9068 42.3653 24.1786C42.3105 24.448 42.224 24.8173 42.1705 24.9992C42.124 25.1791 41.9955 25.5605 41.8918 25.8439C41.7877 26.1389 41.5457 26.6514 41.3219 27.0565C41.115 27.4416 40.814 27.9332 40.6508 28.1544C40.4899 28.3711 40.2255 28.7008 39.7623 29.2204L39.2068 29.1838C38.8991 29.1665 38.4869 29.1151 38.284 29.0676C38.0856 29.0226 37.7988 28.9464 37.6443 28.8963C37.4944 28.8487 37.1389 28.7053 36.3509 28.3346L36.4694 28.1944C36.5371 28.1143 36.7133 27.8592 36.8636 27.6191C37.0581 27.3095 37.2013 27.0184 37.3487 26.624C37.4628 26.3111 37.6011 25.8588 37.6569 25.6194C37.7108 25.373 37.7689 25.0233 37.7879 24.8399C37.8024 24.6541 37.8104 24.2355 37.7986 23.9059C37.7869 23.5763 37.7488 23.1029 37.7037 22.8548C37.6611 22.6022 37.5904 22.2517 37.5425 22.0725C37.4906 21.8794 37.4818 21.757 37.5223 21.7794C37.5603 21.8063 37.6825 21.9149 37.7951 22.03C37.9258 22.155 38.275 22.3949 38.6881 22.6466C39.2138 22.9605 39.4958 23.0987 39.8858 23.2436C40.1717 23.3428 40.62 23.4671 40.8803 23.5169Z" fill="url(#paint13_linear_514_895)"/>
<path d="M43.3374 28.8102C43.6163 28.6882 43.9196 28.5326 44.0188 28.4699C44.1161 28.4003 44.2144 28.3606 44.2324 28.3705C44.2549 28.383 44.2559 28.4129 44.243 28.4469C44.2256 28.4784 44.0133 28.6608 43.773 28.8511C43.5372 29.044 43.1907 29.299 43.0082 29.4273C42.8237 29.5486 42.4602 29.7708 42.2008 29.9212C41.9394 30.0647 41.46 30.3051 41.1387 30.4507C40.8175 30.5963 40.282 30.7999 39.9511 30.8991C39.6177 31.0028 39.0667 31.139 38.7212 31.2007C38.3802 31.265 37.9169 31.338 37.6927 31.361C37.473 31.3865 37.2723 31.399 37.2543 31.389C37.2362 31.3791 37.3729 31.3019 37.556 31.215C37.7411 31.1352 38.0255 30.9926 38.1901 30.9073C38.3572 30.8175 38.6948 30.6104 38.9411 30.441C39.1944 30.2696 39.513 30.0226 39.6585 29.8974C39.8977 29.6771 39.9516 29.6539 40.2747 29.6327C40.471 29.6177 40.9133 29.5507 41.2543 29.4865C41.5998 29.4247 42.0929 29.2977 42.3569 29.2026C42.6229 29.1146 43.063 28.9347 43.3374 28.8102Z" fill="url(#paint14_linear_514_895)"/>
<path d="M30.3471 22.5918C30.8253 22.6621 31.2619 22.7329 31.3189 22.7468C31.3759 22.7606 31.5294 22.8337 31.6624 22.9013C31.8179 22.9813 31.898 23.0491 31.8871 23.09C31.8787 23.1265 31.8315 23.4353 31.7714 23.7781C31.7183 24.1188 31.652 24.7813 31.6301 25.2568C31.6063 25.7253 31.6034 26.4111 31.6228 26.7801C31.6447 27.1447 31.7055 27.7364 31.7623 28.0909C31.8191 28.4454 31.8573 28.7484 31.8428 28.7639C31.8329 28.782 31.782 28.7891 31.734 28.7802C31.6815 28.7688 31.3776 28.6597 31.0606 28.5316C30.6212 28.3593 30.2582 28.1764 29.5504 27.7561C29.0403 27.4566 28.4055 27.0531 28.1398 26.8535C27.8786 26.6563 26.6357 25.7053 25.3752 24.7329C24.1192 23.763 22.6381 22.6158 22.0827 22.1856C21.5342 21.7534 19.9635 20.545 18.6025 19.4995C17.239 18.4584 15.5902 17.1892 14.9322 16.6789C14.2787 16.171 13.5316 15.5879 13.2709 15.3793C13.0147 15.1731 12.4883 14.7648 12.1 14.4681C11.7162 14.1738 11.3594 13.8945 11.3104 13.8557C11.2593 13.8098 11.2292 13.758 11.2392 13.74C11.2491 13.722 12.2127 14.1896 13.3878 14.7742C14.5559 15.3607 15.9811 16.0775 16.5472 16.3608C17.1177 16.6466 18.2404 17.2198 19.0475 17.6304C19.8546 18.041 21.6943 18.9751 23.1305 19.7038C24.5687 20.4396 26.1204 21.2145 26.5809 21.4336C27.0415 21.6528 27.6314 21.9141 27.8944 22.0123C28.1528 22.1081 28.4773 22.2227 28.6092 22.2603C28.7412 22.298 28.9895 22.3588 29.1629 22.3959C29.3363 22.4329 29.869 22.5215 30.3471 22.5918Z" fill="url(#paint15_linear_514_895)"/>
<path d="M32.1797 24.0917C32.214 23.817 32.2598 23.5426 32.2741 23.4742C32.3038 23.3672 32.3153 23.3677 32.3904 23.4444C32.4345 23.4923 32.5307 23.6159 32.6024 23.7201C32.674 23.8243 33.0061 24.4249 33.3348 25.0529C33.6704 25.6789 34.0667 26.3972 34.2152 26.6495C34.3706 26.8999 34.6117 27.2504 34.7539 27.4289C34.9007 27.6098 35.1541 27.8849 35.3248 28.0438C35.4955 28.2028 35.6372 28.3398 35.6387 28.3582C35.6382 28.3697 35.5266 28.4549 35.3869 28.5481C35.2473 28.6414 34.894 28.7811 34.6031 28.8612C34.3141 28.9483 33.8762 29.0178 33.6295 29.0284C33.3898 29.0369 33.0177 29.0193 32.4152 28.9509L32.3163 28.5555C32.2584 28.3414 32.1825 27.947 32.1494 27.6879C32.1143 27.4218 32.0773 26.9783 32.0656 26.7017C32.052 26.418 32.06 25.8291 32.0804 25.3881C32.0964 24.9445 32.1434 24.3595 32.1797 24.0917Z" fill="url(#paint16_linear_514_895)"/>
<path d="M38.3976 29.5533C38.6239 29.5902 38.8827 29.6216 38.9771 29.6208C39.076 29.6226 39.1724 29.6289 39.1904 29.6388C39.2084 29.6487 39.2194 29.6607 39.2215 29.6677C39.2165 29.6767 39.0834 29.7794 38.9218 29.9017C38.7628 30.0194 38.4576 30.2209 38.2452 30.3503C38.0307 30.4727 37.6356 30.6774 37.3567 30.7994C37.0803 30.917 36.5593 31.105 36.194 31.2028C35.7607 31.3277 35.4177 31.385 35.188 31.3755C34.9972 31.37 34.6625 31.3378 34.4336 31.3054C34.2093 31.2755 33.8575 31.2104 33.2718 31.069L33.0596 30.6874C32.9393 30.4799 32.7676 30.1207 32.6781 29.8892C32.5862 29.6622 32.5368 29.4645 32.5672 29.452C32.5952 29.4439 32.7745 29.449 32.9693 29.4685C33.1572 29.49 33.5093 29.4906 33.7585 29.4756C34.0007 29.4625 34.3831 29.3976 34.6017 29.3422C34.8228 29.2822 35.1592 29.1625 35.3448 29.0712C35.5303 28.9798 35.7687 28.8354 36.0679 28.6129L36.5855 28.8989C36.8711 29.0625 37.3026 29.2598 37.5455 29.3411C37.7929 29.4249 38.1733 29.5234 38.3976 29.5533Z" fill="url(#paint17_linear_514_895)"/>
<path d="M26.4914 26.36C26.3957 26.2248 26.3294 26.1001 26.3439 26.0846C26.3559 26.0736 26.4189 26.1084 26.4854 26.1687C26.5545 26.2245 26.8978 26.4963 27.2456 26.7707C27.6003 27.043 28.1457 27.4383 28.4614 27.6538C28.8175 27.8917 29.4022 28.2264 29.9793 28.5217C30.7229 28.909 31.0259 29.0411 31.979 29.315L32.1525 29.7986C32.252 30.065 32.3852 30.4088 32.455 30.559C32.5248 30.7092 32.5655 30.8374 32.5491 30.846C32.5351 30.85 32.2742 30.7587 31.9727 30.6451C31.6353 30.5115 31.0757 30.2377 30.5246 29.9274C30.0295 29.6538 29.4502 29.2986 29.2291 29.1353C29.0124 28.9745 28.6761 28.7006 28.4784 28.5268C28.2852 28.3555 27.9704 28.064 27.7801 27.8767C27.5944 27.6919 27.2664 27.3285 27.049 27.0733C26.8361 26.8206 26.5846 26.4996 26.4914 26.36Z" fill="url(#paint18_linear_514_895)"/>
<defs>
<linearGradient id="paint0_linear_514_895" x1="0.606958" y1="0.151642" x2="46.5485" y2="25.5303" gradientUnits="userSpaceOnUse">
<stop offset="0.2254" stop-color="#8C4D00"/>
<stop offset="0.2278" stop-color="#8D4F01"/>
<stop offset="0.3112" stop-color="#B6842D"/>
<stop offset="0.3891" stop-color="#D5AD50"/>
<stop offset="0.4593" stop-color="#ECCB69"/>
<stop offset="0.5194" stop-color="#FADD78"/>
<stop offset="0.5622" stop-color="#FFE47D"/>
<stop offset="0.59" stop-color="#FFE177"/>
<stop offset="0.6269" stop-color="#FDD866"/>
<stop offset="0.6687" stop-color="#FBCA4B"/>
<stop offset="0.7138" stop-color="#F8B625"/>
<stop offset="0.7513" stop-color="#F5A300"/>
<stop offset="0.783" stop-color="#EF9F00"/>
<stop offset="0.8251" stop-color="#DE9400"/>
<stop offset="0.8732" stop-color="#C28100"/>
<stop offset="0.9253" stop-color="#9C6700"/>
<stop offset="0.9352" stop-color="#946200"/>
</linearGradient>
<linearGradient id="paint1_linear_514_895" x1="0.606958" y1="0.151642" x2="46.5485" y2="25.5303" gradientUnits="userSpaceOnUse">
<stop offset="0.2254" stop-color="#8C4D00"/>
<stop offset="0.2278" stop-color="#8D4F01"/>
<stop offset="0.3112" stop-color="#B6842D"/>
<stop offset="0.3891" stop-color="#D5AD50"/>
<stop offset="0.4593" stop-color="#ECCB69"/>
<stop offset="0.5194" stop-color="#FADD78"/>
<stop offset="0.5622" stop-color="#FFE47D"/>
<stop offset="0.59" stop-color="#FFE177"/>
<stop offset="0.6269" stop-color="#FDD866"/>
<stop offset="0.6687" stop-color="#FBCA4B"/>
<stop offset="0.7138" stop-color="#F8B625"/>
<stop offset="0.7513" stop-color="#F5A300"/>
<stop offset="0.783" stop-color="#EF9F00"/>
<stop offset="0.8251" stop-color="#DE9400"/>
<stop offset="0.8732" stop-color="#C28100"/>
<stop offset="0.9253" stop-color="#9C6700"/>
<stop offset="0.9352" stop-color="#946200"/>
</linearGradient>
<linearGradient id="paint2_linear_514_895" x1="0.606958" y1="0.151642" x2="46.5485" y2="25.5303" gradientUnits="userSpaceOnUse">
<stop offset="0.2254" stop-color="#8C4D00"/>
<stop offset="0.2278" stop-color="#8D4F01"/>
<stop offset="0.3112" stop-color="#B6842D"/>
<stop offset="0.3891" stop-color="#D5AD50"/>
<stop offset="0.4593" stop-color="#ECCB69"/>
<stop offset="0.5194" stop-color="#FADD78"/>
<stop offset="0.5622" stop-color="#FFE47D"/>
<stop offset="0.59" stop-color="#FFE177"/>
<stop offset="0.6269" stop-color="#FDD866"/>
<stop offset="0.6687" stop-color="#FBCA4B"/>
<stop offset="0.7138" stop-color="#F8B625"/>
<stop offset="0.7513" stop-color="#F5A300"/>
<stop offset="0.783" stop-color="#EF9F00"/>
<stop offset="0.8251" stop-color="#DE9400"/>
<stop offset="0.8732" stop-color="#C28100"/>
<stop offset="0.9253" stop-color="#9C6700"/>
<stop offset="0.9352" stop-color="#946200"/>
</linearGradient>
<linearGradient id="paint3_linear_514_895" x1="0.606958" y1="0.151642" x2="46.5485" y2="25.5303" gradientUnits="userSpaceOnUse">
<stop offset="0.2254" stop-color="#8C4D00"/>
<stop offset="0.2278" stop-color="#8D4F01"/>
<stop offset="0.3112" stop-color="#B6842D"/>
<stop offset="0.3891" stop-color="#D5AD50"/>
<stop offset="0.4593" stop-color="#ECCB69"/>
<stop offset="0.5194" stop-color="#FADD78"/>
<stop offset="0.5622" stop-color="#FFE47D"/>
<stop offset="0.59" stop-color="#FFE177"/>
<stop offset="0.6269" stop-color="#FDD866"/>
<stop offset="0.6687" stop-color="#FBCA4B"/>
<stop offset="0.7138" stop-color="#F8B625"/>
<stop offset="0.7513" stop-color="#F5A300"/>
<stop offset="0.783" stop-color="#EF9F00"/>
<stop offset="0.8251" stop-color="#DE9400"/>
<stop offset="0.8732" stop-color="#C28100"/>
<stop offset="0.9253" stop-color="#9C6700"/>
<stop offset="0.9352" stop-color="#946200"/>
</linearGradient>
<linearGradient id="paint4_linear_514_895" x1="0.606958" y1="0.151642" x2="46.5485" y2="25.5303" gradientUnits="userSpaceOnUse">
<stop offset="0.2254" stop-color="#8C4D00"/>
<stop offset="0.2278" stop-color="#8D4F01"/>
<stop offset="0.3112" stop-color="#B6842D"/>
<stop offset="0.3891" stop-color="#D5AD50"/>
<stop offset="0.4593" stop-color="#ECCB69"/>
<stop offset="0.5194" stop-color="#FADD78"/>
<stop offset="0.5622" stop-color="#FFE47D"/>
<stop offset="0.59" stop-color="#FFE177"/>
<stop offset="0.6269" stop-color="#FDD866"/>
<stop offset="0.6687" stop-color="#FBCA4B"/>
<stop offset="0.7138" stop-color="#F8B625"/>
<stop offset="0.7513" stop-color="#F5A300"/>
<stop offset="0.783" stop-color="#EF9F00"/>
<stop offset="0.8251" stop-color="#DE9400"/>
<stop offset="0.8732" stop-color="#C28100"/>
<stop offset="0.9253" stop-color="#9C6700"/>
<stop offset="0.9352" stop-color="#946200"/>
</linearGradient>
<linearGradient id="paint5_linear_514_895" x1="0.606958" y1="0.151642" x2="46.5485" y2="25.5303" gradientUnits="userSpaceOnUse">
<stop offset="0.2254" stop-color="#8C4D00"/>
<stop offset="0.2278" stop-color="#8D4F01"/>
<stop offset="0.3112" stop-color="#B6842D"/>
<stop offset="0.3891" stop-color="#D5AD50"/>
<stop offset="0.4593" stop-color="#ECCB69"/>
<stop offset="0.5194" stop-color="#FADD78"/>
<stop offset="0.5622" stop-color="#FFE47D"/>
<stop offset="0.59" stop-color="#FFE177"/>
<stop offset="0.6269" stop-color="#FDD866"/>
<stop offset="0.6687" stop-color="#FBCA4B"/>
<stop offset="0.7138" stop-color="#F8B625"/>
<stop offset="0.7513" stop-color="#F5A300"/>
<stop offset="0.783" stop-color="#EF9F00"/>
<stop offset="0.8251" stop-color="#DE9400"/>
<stop offset="0.8732" stop-color="#C28100"/>
<stop offset="0.9253" stop-color="#9C6700"/>
<stop offset="0.9352" stop-color="#946200"/>
</linearGradient>
<linearGradient id="paint6_linear_514_895" x1="0.606958" y1="0.151642" x2="46.5485" y2="25.5303" gradientUnits="userSpaceOnUse">
<stop offset="0.2254" stop-color="#8C4D00"/>
<stop offset="0.2278" stop-color="#8D4F01"/>
<stop offset="0.3112" stop-color="#B6842D"/>
<stop offset="0.3891" stop-color="#D5AD50"/>
<stop offset="0.4593" stop-color="#ECCB69"/>
<stop offset="0.5194" stop-color="#FADD78"/>
<stop offset="0.5622" stop-color="#FFE47D"/>
<stop offset="0.59" stop-color="#FFE177"/>
<stop offset="0.6269" stop-color="#FDD866"/>
<stop offset="0.6687" stop-color="#FBCA4B"/>
<stop offset="0.7138" stop-color="#F8B625"/>
<stop offset="0.7513" stop-color="#F5A300"/>
<stop offset="0.783" stop-color="#EF9F00"/>
<stop offset="0.8251" stop-color="#DE9400"/>
<stop offset="0.8732" stop-color="#C28100"/>
<stop offset="0.9253" stop-color="#9C6700"/>
<stop offset="0.9352" stop-color="#946200"/>
</linearGradient>
<linearGradient id="paint7_linear_514_895" x1="0.606958" y1="0.151642" x2="46.5485" y2="25.5303" gradientUnits="userSpaceOnUse">
<stop offset="0.2254" stop-color="#8C4D00"/>
<stop offset="0.2278" stop-color="#8D4F01"/>
<stop offset="0.3112" stop-color="#B6842D"/>
<stop offset="0.3891" stop-color="#D5AD50"/>
<stop offset="0.4593" stop-color="#ECCB69"/>
<stop offset="0.5194" stop-color="#FADD78"/>
<stop offset="0.5622" stop-color="#FFE47D"/>
<stop offset="0.59" stop-color="#FFE177"/>
<stop offset="0.6269" stop-color="#FDD866"/>
<stop offset="0.6687" stop-color="#FBCA4B"/>
<stop offset="0.7138" stop-color="#F8B625"/>
<stop offset="0.7513" stop-color="#F5A300"/>
<stop offset="0.783" stop-color="#EF9F00"/>
<stop offset="0.8251" stop-color="#DE9400"/>
<stop offset="0.8732" stop-color="#C28100"/>
<stop offset="0.9253" stop-color="#9C6700"/>
<stop offset="0.9352" stop-color="#946200"/>
</linearGradient>
<linearGradient id="paint8_linear_514_895" x1="0.606958" y1="0.151642" x2="46.5485" y2="25.5303" gradientUnits="userSpaceOnUse">
<stop offset="0.2254" stop-color="#8C4D00"/>
<stop offset="0.2278" stop-color="#8D4F01"/>
<stop offset="0.3112" stop-color="#B6842D"/>
<stop offset="0.3891" stop-color="#D5AD50"/>
<stop offset="0.4593" stop-color="#ECCB69"/>
<stop offset="0.5194" stop-color="#FADD78"/>
<stop offset="0.5622" stop-color="#FFE47D"/>
<stop offset="0.59" stop-color="#FFE177"/>
<stop offset="0.6269" stop-color="#FDD866"/>
<stop offset="0.6687" stop-color="#FBCA4B"/>
<stop offset="0.7138" stop-color="#F8B625"/>
<stop offset="0.7513" stop-color="#F5A300"/>
<stop offset="0.783" stop-color="#EF9F00"/>
<stop offset="0.8251" stop-color="#DE9400"/>
<stop offset="0.8732" stop-color="#C28100"/>
<stop offset="0.9253" stop-color="#9C6700"/>
<stop offset="0.9352" stop-color="#946200"/>
</linearGradient>
<linearGradient id="paint9_linear_514_895" x1="0.606958" y1="0.151642" x2="46.5485" y2="25.5303" gradientUnits="userSpaceOnUse">
<stop offset="0.2254" stop-color="#8C4D00"/>
<stop offset="0.2278" stop-color="#8D4F01"/>
<stop offset="0.3112" stop-color="#B6842D"/>
<stop offset="0.3891" stop-color="#D5AD50"/>
<stop offset="0.4593" stop-color="#ECCB69"/>
<stop offset="0.5194" stop-color="#FADD78"/>
<stop offset="0.5622" stop-color="#FFE47D"/>
<stop offset="0.59" stop-color="#FFE177"/>
<stop offset="0.6269" stop-color="#FDD866"/>
<stop offset="0.6687" stop-color="#FBCA4B"/>
<stop offset="0.7138" stop-color="#F8B625"/>
<stop offset="0.7513" stop-color="#F5A300"/>
<stop offset="0.783" stop-color="#EF9F00"/>
<stop offset="0.8251" stop-color="#DE9400"/>
<stop offset="0.8732" stop-color="#C28100"/>
<stop offset="0.9253" stop-color="#9C6700"/>
<stop offset="0.9352" stop-color="#946200"/>
</linearGradient>
<linearGradient id="paint10_linear_514_895" x1="0.606958" y1="0.151642" x2="46.5485" y2="25.5303" gradientUnits="userSpaceOnUse">
<stop offset="0.2254" stop-color="#8C4D00"/>
<stop offset="0.2278" stop-color="#8D4F01"/>
<stop offset="0.3112" stop-color="#B6842D"/>
<stop offset="0.3891" stop-color="#D5AD50"/>
<stop offset="0.4593" stop-color="#ECCB69"/>
<stop offset="0.5194" stop-color="#FADD78"/>
<stop offset="0.5622" stop-color="#FFE47D"/>
<stop offset="0.59" stop-color="#FFE177"/>
<stop offset="0.6269" stop-color="#FDD866"/>
<stop offset="0.6687" stop-color="#FBCA4B"/>
<stop offset="0.7138" stop-color="#F8B625"/>
<stop offset="0.7513" stop-color="#F5A300"/>
<stop offset="0.783" stop-color="#EF9F00"/>
<stop offset="0.8251" stop-color="#DE9400"/>
<stop offset="0.8732" stop-color="#C28100"/>
<stop offset="0.9253" stop-color="#9C6700"/>
<stop offset="0.9352" stop-color="#946200"/>
</linearGradient>
<linearGradient id="paint11_linear_514_895" x1="0.606958" y1="0.151642" x2="46.5485" y2="25.5303" gradientUnits="userSpaceOnUse">
<stop offset="0.2254" stop-color="#8C4D00"/>
<stop offset="0.2278" stop-color="#8D4F01"/>
<stop offset="0.3112" stop-color="#B6842D"/>
<stop offset="0.3891" stop-color="#D5AD50"/>
<stop offset="0.4593" stop-color="#ECCB69"/>
<stop offset="0.5194" stop-color="#FADD78"/>
<stop offset="0.5622" stop-color="#FFE47D"/>
<stop offset="0.59" stop-color="#FFE177"/>
<stop offset="0.6269" stop-color="#FDD866"/>
<stop offset="0.6687" stop-color="#FBCA4B"/>
<stop offset="0.7138" stop-color="#F8B625"/>
<stop offset="0.7513" stop-color="#F5A300"/>
<stop offset="0.783" stop-color="#EF9F00"/>
<stop offset="0.8251" stop-color="#DE9400"/>
<stop offset="0.8732" stop-color="#C28100"/>
<stop offset="0.9253" stop-color="#9C6700"/>
<stop offset="0.9352" stop-color="#946200"/>
</linearGradient>
<linearGradient id="paint12_linear_514_895" x1="0.606958" y1="0.151642" x2="46.5485" y2="25.5303" gradientUnits="userSpaceOnUse">
<stop offset="0.2254" stop-color="#8C4D00"/>
<stop offset="0.2278" stop-color="#8D4F01"/>
<stop offset="0.3112" stop-color="#B6842D"/>
<stop offset="0.3891" stop-color="#D5AD50"/>
<stop offset="0.4593" stop-color="#ECCB69"/>
<stop offset="0.5194" stop-color="#FADD78"/>
<stop offset="0.5622" stop-color="#FFE47D"/>
<stop offset="0.59" stop-color="#FFE177"/>
<stop offset="0.6269" stop-color="#FDD866"/>
<stop offset="0.6687" stop-color="#FBCA4B"/>
<stop offset="0.7138" stop-color="#F8B625"/>
<stop offset="0.7513" stop-color="#F5A300"/>
<stop offset="0.783" stop-color="#EF9F00"/>
<stop offset="0.8251" stop-color="#DE9400"/>
<stop offset="0.8732" stop-color="#C28100"/>
<stop offset="0.9253" stop-color="#9C6700"/>
<stop offset="0.9352" stop-color="#946200"/>
</linearGradient>
<linearGradient id="paint13_linear_514_895" x1="0.606958" y1="0.151642" x2="46.5485" y2="25.5303" gradientUnits="userSpaceOnUse">
<stop offset="0.2254" stop-color="#8C4D00"/>
<stop offset="0.2278" stop-color="#8D4F01"/>
<stop offset="0.3112" stop-color="#B6842D"/>
<stop offset="0.3891" stop-color="#D5AD50"/>
<stop offset="0.4593" stop-color="#ECCB69"/>
<stop offset="0.5194" stop-color="#FADD78"/>
<stop offset="0.5622" stop-color="#FFE47D"/>
<stop offset="0.59" stop-color="#FFE177"/>
<stop offset="0.6269" stop-color="#FDD866"/>
<stop offset="0.6687" stop-color="#FBCA4B"/>
<stop offset="0.7138" stop-color="#F8B625"/>
<stop offset="0.7513" stop-color="#F5A300"/>
<stop offset="0.783" stop-color="#EF9F00"/>
<stop offset="0.8251" stop-color="#DE9400"/>
<stop offset="0.8732" stop-color="#C28100"/>
<stop offset="0.9253" stop-color="#9C6700"/>
<stop offset="0.9352" stop-color="#946200"/>
</linearGradient>
<linearGradient id="paint14_linear_514_895" x1="0.606958" y1="0.151642" x2="46.5485" y2="25.5303" gradientUnits="userSpaceOnUse">
<stop offset="0.2254" stop-color="#8C4D00"/>
<stop offset="0.2278" stop-color="#8D4F01"/>
<stop offset="0.3112" stop-color="#B6842D"/>
<stop offset="0.3891" stop-color="#D5AD50"/>
<stop offset="0.4593" stop-color="#ECCB69"/>
<stop offset="0.5194" stop-color="#FADD78"/>
<stop offset="0.5622" stop-color="#FFE47D"/>
<stop offset="0.59" stop-color="#FFE177"/>
<stop offset="0.6269" stop-color="#FDD866"/>
<stop offset="0.6687" stop-color="#FBCA4B"/>
<stop offset="0.7138" stop-color="#F8B625"/>
<stop offset="0.7513" stop-color="#F5A300"/>
<stop offset="0.783" stop-color="#EF9F00"/>
<stop offset="0.8251" stop-color="#DE9400"/>
<stop offset="0.8732" stop-color="#C28100"/>
<stop offset="0.9253" stop-color="#9C6700"/>
<stop offset="0.9352" stop-color="#946200"/>
</linearGradient>
<linearGradient id="paint15_linear_514_895" x1="0.606958" y1="0.151642" x2="46.5485" y2="25.5303" gradientUnits="userSpaceOnUse">
<stop offset="0.2254" stop-color="#8C4D00"/>
<stop offset="0.2278" stop-color="#8D4F01"/>
<stop offset="0.3112" stop-color="#B6842D"/>
<stop offset="0.3891" stop-color="#D5AD50"/>
<stop offset="0.4593" stop-color="#ECCB69"/>
<stop offset="0.5194" stop-color="#FADD78"/>
<stop offset="0.5622" stop-color="#FFE47D"/>
<stop offset="0.59" stop-color="#FFE177"/>
<stop offset="0.6269" stop-color="#FDD866"/>
<stop offset="0.6687" stop-color="#FBCA4B"/>
<stop offset="0.7138" stop-color="#F8B625"/>
<stop offset="0.7513" stop-color="#F5A300"/>
<stop offset="0.783" stop-color="#EF9F00"/>
<stop offset="0.8251" stop-color="#DE9400"/>
<stop offset="0.8732" stop-color="#C28100"/>
<stop offset="0.9253" stop-color="#9C6700"/>
<stop offset="0.9352" stop-color="#946200"/>
</linearGradient>
<linearGradient id="paint16_linear_514_895" x1="0.606958" y1="0.151642" x2="46.5485" y2="25.5303" gradientUnits="userSpaceOnUse">
<stop offset="0.2254" stop-color="#8C4D00"/>
<stop offset="0.2278" stop-color="#8D4F01"/>
<stop offset="0.3112" stop-color="#B6842D"/>
<stop offset="0.3891" stop-color="#D5AD50"/>
<stop offset="0.4593" stop-color="#ECCB69"/>
<stop offset="0.5194" stop-color="#FADD78"/>
<stop offset="0.5622" stop-color="#FFE47D"/>
<stop offset="0.59" stop-color="#FFE177"/>
<stop offset="0.6269" stop-color="#FDD866"/>
<stop offset="0.6687" stop-color="#FBCA4B"/>
<stop offset="0.7138" stop-color="#F8B625"/>
<stop offset="0.7513" stop-color="#F5A300"/>
<stop offset="0.783" stop-color="#EF9F00"/>
<stop offset="0.8251" stop-color="#DE9400"/>
<stop offset="0.8732" stop-color="#C28100"/>
<stop offset="0.9253" stop-color="#9C6700"/>
<stop offset="0.9352" stop-color="#946200"/>
</linearGradient>
<linearGradient id="paint17_linear_514_895" x1="0.606958" y1="0.151642" x2="46.5485" y2="25.5303" gradientUnits="userSpaceOnUse">
<stop offset="0.2254" stop-color="#8C4D00"/>
<stop offset="0.2278" stop-color="#8D4F01"/>
<stop offset="0.3112" stop-color="#B6842D"/>
<stop offset="0.3891" stop-color="#D5AD50"/>
<stop offset="0.4593" stop-color="#ECCB69"/>
<stop offset="0.5194" stop-color="#FADD78"/>
<stop offset="0.5622" stop-color="#FFE47D"/>
<stop offset="0.59" stop-color="#FFE177"/>
<stop offset="0.6269" stop-color="#FDD866"/>
<stop offset="0.6687" stop-color="#FBCA4B"/>
<stop offset="0.7138" stop-color="#F8B625"/>
<stop offset="0.7513" stop-color="#F5A300"/>
<stop offset="0.783" stop-color="#EF9F00"/>
<stop offset="0.8251" stop-color="#DE9400"/>
<stop offset="0.8732" stop-color="#C28100"/>
<stop offset="0.9253" stop-color="#9C6700"/>
<stop offset="0.9352" stop-color="#946200"/>
</linearGradient>
<linearGradient id="paint18_linear_514_895" x1="0.606958" y1="0.151642" x2="46.5485" y2="25.5303" gradientUnits="userSpaceOnUse">
<stop offset="0.2254" stop-color="#8C4D00"/>
<stop offset="0.2278" stop-color="#8D4F01"/>
<stop offset="0.3112" stop-color="#B6842D"/>
<stop offset="0.3891" stop-color="#D5AD50"/>
<stop offset="0.4593" stop-color="#ECCB69"/>
<stop offset="0.5194" stop-color="#FADD78"/>
<stop offset="0.5622" stop-color="#FFE47D"/>
<stop offset="0.59" stop-color="#FFE177"/>
<stop offset="0.6269" stop-color="#FDD866"/>
<stop offset="0.6687" stop-color="#FBCA4B"/>
<stop offset="0.7138" stop-color="#F8B625"/>
<stop offset="0.7513" stop-color="#F5A300"/>
<stop offset="0.783" stop-color="#EF9F00"/>
<stop offset="0.8251" stop-color="#DE9400"/>
<stop offset="0.8732" stop-color="#C28100"/>
<stop offset="0.9253" stop-color="#9C6700"/>
<stop offset="0.9352" stop-color="#946200"/>
</linearGradient>
</defs>
</svg>
